%TF.GenerationSoftware,KiCad,Pcbnew,(5.99.0-13283-gf5fc9fa11f)*%
%TF.CreationDate,2021-11-15T23:55:47+03:00*%
%TF.ProjectId,LIR2032_Battery_Charger,4c495232-3033-4325-9f42-617474657279,rev?*%
%TF.SameCoordinates,PX8f0d180PY5f5e100*%
%TF.FileFunction,Legend,Top*%
%TF.FilePolarity,Positive*%
%FSLAX46Y46*%
G04 Gerber Fmt 4.6, Leading zero omitted, Abs format (unit mm)*
G04 Created by KiCad (PCBNEW (5.99.0-13283-gf5fc9fa11f)) date 2021-11-15 23:55:47*
%MOMM*%
%LPD*%
G01*
G04 APERTURE LIST*
G04 Aperture macros list*
%AMRoundRect*
0 Rectangle with rounded corners*
0 $1 Rounding radius*
0 $2 $3 $4 $5 $6 $7 $8 $9 X,Y pos of 4 corners*
0 Add a 4 corners polygon primitive as box body*
4,1,4,$2,$3,$4,$5,$6,$7,$8,$9,$2,$3,0*
0 Add four circle primitives for the rounded corners*
1,1,$1+$1,$2,$3*
1,1,$1+$1,$4,$5*
1,1,$1+$1,$6,$7*
1,1,$1+$1,$8,$9*
0 Add four rect primitives between the rounded corners*
20,1,$1+$1,$2,$3,$4,$5,0*
20,1,$1+$1,$4,$5,$6,$7,0*
20,1,$1+$1,$6,$7,$8,$9,0*
20,1,$1+$1,$8,$9,$2,$3,0*%
G04 Aperture macros list end*
%ADD10C,0.150000*%
%ADD11RoundRect,0.125000X0.175000X-0.125000X0.175000X0.125000X-0.175000X0.125000X-0.175000X-0.125000X0*%
%ADD12RoundRect,0.075000X0.075000X-0.150000X0.075000X0.150000X-0.075000X0.150000X-0.075000X-0.150000X0*%
%ADD13RoundRect,0.135000X-0.135000X-0.185000X0.135000X-0.185000X0.135000X0.185000X-0.135000X0.185000X0*%
%ADD14RoundRect,0.135000X-0.185000X0.135000X-0.185000X-0.135000X0.185000X-0.135000X0.185000X0.135000X0*%
%ADD15RoundRect,0.135000X0.185000X-0.135000X0.185000X0.135000X-0.185000X0.135000X-0.185000X-0.135000X0*%
%ADD16C,0.650000*%
%ADD17RoundRect,0.150000X0.150000X0.475000X-0.150000X0.475000X-0.150000X-0.475000X0.150000X-0.475000X0*%
%ADD18RoundRect,0.075000X0.075000X0.550000X-0.075000X0.550000X-0.075000X-0.550000X0.075000X-0.550000X0*%
%ADD19O,1.000000X1.600000*%
%ADD20O,1.000000X2.100000*%
%ADD21RoundRect,0.150000X-0.150000X0.150000X-0.150000X-0.150000X0.150000X-0.150000X0.150000X0.150000X0*%
%ADD22RoundRect,0.150000X-0.150000X-0.150000X0.150000X-0.150000X0.150000X0.150000X-0.150000X0.150000X0*%
%ADD23RoundRect,0.150000X0.150000X0.150000X-0.150000X0.150000X-0.150000X-0.150000X0.150000X-0.150000X0*%
%ADD24RoundRect,0.140000X-0.140000X-0.160000X0.140000X-0.160000X0.140000X0.160000X-0.140000X0.160000X0*%
%ADD25RoundRect,0.140000X-0.160000X0.140000X-0.160000X-0.140000X0.160000X-0.140000X0.160000X0.140000X0*%
%ADD26RoundRect,0.290000X1.660000X-1.160000X1.660000X1.160000X-1.660000X1.160000X-1.660000X-1.160000X0*%
G04 APERTURE END LIST*
D10*
X7561904Y13004762D02*
X8133333Y13004762D01*
X8247619Y12966667D01*
X8323809Y12890477D01*
X8361904Y12776191D01*
X8361904Y12700000D01*
X8361904Y13766667D02*
X8361904Y13385715D01*
X7561904Y13385715D01*
X8285714Y14490477D02*
X8323809Y14452381D01*
X8361904Y14338096D01*
X8361904Y14261905D01*
X8323809Y14147620D01*
X8247619Y14071429D01*
X8171428Y14033334D01*
X8019047Y13995239D01*
X7904761Y13995239D01*
X7752380Y14033334D01*
X7676190Y14071429D01*
X7600000Y14147620D01*
X7561904Y14261905D01*
X7561904Y14338096D01*
X7600000Y14452381D01*
X7638095Y14490477D01*
X7561904Y15061905D02*
X8133333Y15061905D01*
X8247619Y15023810D01*
X8323809Y14947620D01*
X8361904Y14833334D01*
X8361904Y14757143D01*
X8361904Y15823810D02*
X8361904Y15442858D01*
X7561904Y15442858D01*
X8285714Y16547620D02*
X8323809Y16509524D01*
X8361904Y16395239D01*
X8361904Y16319048D01*
X8323809Y16204762D01*
X8247619Y16128572D01*
X8171428Y16090477D01*
X8019047Y16052381D01*
X7904761Y16052381D01*
X7752380Y16090477D01*
X7676190Y16128572D01*
X7600000Y16204762D01*
X7561904Y16319048D01*
X7561904Y16395239D01*
X7600000Y16509524D01*
X7638095Y16547620D01*
X7561904Y17119048D02*
X8133333Y17119048D01*
X8247619Y17080953D01*
X8323809Y17004762D01*
X8361904Y16890477D01*
X8361904Y16814286D01*
X8361904Y17880953D02*
X8361904Y17500000D01*
X7561904Y17500000D01*
X8285714Y18604762D02*
X8323809Y18566667D01*
X8361904Y18452381D01*
X8361904Y18376191D01*
X8323809Y18261905D01*
X8247619Y18185715D01*
X8171428Y18147620D01*
X8019047Y18109524D01*
X7904761Y18109524D01*
X7752380Y18147620D01*
X7676190Y18185715D01*
X7600000Y18261905D01*
X7561904Y18376191D01*
X7561904Y18452381D01*
X7600000Y18566667D01*
X7638095Y18604762D01*
X7561904Y19176191D02*
X8133333Y19176191D01*
X8247619Y19138096D01*
X8323809Y19061905D01*
X8361904Y18947620D01*
X8361904Y18871429D01*
X8361904Y19938096D02*
X8361904Y19557143D01*
X7561904Y19557143D01*
X8285714Y20661905D02*
X8323809Y20623810D01*
X8361904Y20509524D01*
X8361904Y20433334D01*
X8323809Y20319048D01*
X8247619Y20242858D01*
X8171428Y20204762D01*
X8019047Y20166667D01*
X7904761Y20166667D01*
X7752380Y20204762D01*
X7676190Y20242858D01*
X7600000Y20319048D01*
X7561904Y20433334D01*
X7561904Y20509524D01*
X7600000Y20623810D01*
X7638095Y20661905D01*
G36*
X6863543Y36172109D02*
G01*
X6953488Y36158767D01*
X7041692Y36136673D01*
X7127306Y36106040D01*
X7209505Y36067162D01*
X7287498Y36020415D01*
X7360533Y35966249D01*
X7427907Y35905184D01*
X7488972Y35837810D01*
X7543138Y35764775D01*
X7589885Y35686782D01*
X7628762Y35604583D01*
X7659396Y35518969D01*
X7681490Y35430765D01*
X7694832Y35340820D01*
X7699293Y35250000D01*
X7694832Y35159180D01*
X7681490Y35069235D01*
X7659396Y34981031D01*
X7628762Y34895417D01*
X7589885Y34813218D01*
X7543138Y34735225D01*
X7488972Y34662190D01*
X7427907Y34594816D01*
X7360533Y34533751D01*
X7287498Y34479585D01*
X7209505Y34432838D01*
X7127306Y34393960D01*
X7041692Y34363327D01*
X6953488Y34341233D01*
X6863543Y34327891D01*
X6772723Y34323429D01*
X1727277Y34323429D01*
X1636458Y34327891D01*
X1546512Y34341233D01*
X1458308Y34363327D01*
X1372694Y34393960D01*
X1290495Y34432837D01*
X1212502Y34479585D01*
X1139467Y34533751D01*
X1072093Y34594815D01*
X1011028Y34662190D01*
X956862Y34735225D01*
X910115Y34813218D01*
X871238Y34895417D01*
X854305Y34942739D01*
X3810871Y34942739D01*
X3817539Y34884954D01*
X3846987Y34854117D01*
X3908661Y34843838D01*
X3965890Y34851339D01*
X3995339Y34873842D01*
X4005895Y34903290D01*
X4007562Y34941628D01*
X4007562Y35067199D01*
X4146469Y35067199D01*
X4211662Y35075102D01*
X4275374Y35098808D01*
X4337604Y35138319D01*
X4378998Y35178741D01*
X4412057Y35231109D01*
X4433727Y35292922D01*
X4440950Y35361681D01*
X4433727Y35430578D01*
X4412057Y35492808D01*
X4378998Y35545593D01*
X4342140Y35581708D01*
X4485400Y35581708D01*
X4497624Y35527257D01*
X4712095Y34910513D01*
X4719874Y34893844D01*
X4750433Y34860507D01*
X4808774Y34843838D01*
X4869892Y34869397D01*
X4887672Y34891622D01*
X4897674Y34910513D01*
X4903408Y34927493D01*
X4918832Y34973099D01*
X4943946Y35047330D01*
X4978750Y35150188D01*
X5023245Y35281671D01*
X5153261Y34898289D01*
X5184932Y34862174D01*
X5241605Y34843838D01*
X5298279Y34862174D01*
X5327727Y34891622D01*
X5335506Y34910513D01*
X5346654Y34942739D01*
X5623320Y34942739D01*
X5629987Y34884954D01*
X5659435Y34854117D01*
X5721110Y34843838D01*
X5778339Y34851339D01*
X5807787Y34873842D01*
X5818344Y34903290D01*
X5820011Y34941628D01*
X5820011Y35067199D01*
X5960029Y35067199D01*
X5994477Y35069422D01*
X6037693Y34967063D01*
X6066585Y34900018D01*
X6081155Y34868286D01*
X6101713Y34846616D01*
X6137273Y34836059D01*
X6194502Y34851617D01*
X6246175Y34883843D01*
X6263400Y34922737D01*
X6246731Y34980522D01*
X6215616Y35051271D01*
X6190428Y35109427D01*
X6171166Y35154988D01*
X6217468Y35214008D01*
X6245249Y35282905D01*
X6254510Y35361681D01*
X6247287Y35430578D01*
X6225617Y35492808D01*
X6192835Y35545593D01*
X6152275Y35586153D01*
X6090168Y35625664D01*
X6026827Y35649371D01*
X5962251Y35657273D01*
X5722221Y35657273D01*
X5664992Y35649772D01*
X5635544Y35627269D01*
X5624987Y35597821D01*
X5623320Y35559483D01*
X5623320Y34942739D01*
X5346654Y34942739D01*
X5548866Y35527257D01*
X5562201Y35581708D01*
X5543588Y35621713D01*
X5487747Y35652828D01*
X5435519Y35663941D01*
X5398292Y35652273D01*
X5377734Y35628381D01*
X5363287Y35590598D01*
X5241050Y35217218D01*
X5113256Y35602822D01*
X5082141Y35638938D01*
X5029357Y35657273D01*
X4983240Y35649494D01*
X4948513Y35624491D01*
X4926566Y35585042D01*
X4805440Y35219441D01*
X4683202Y35590598D01*
X4658199Y35645049D01*
X4618194Y35662829D01*
X4559854Y35651717D01*
X4504013Y35621435D01*
X4485400Y35581708D01*
X4342140Y35581708D01*
X4337604Y35586153D01*
X4275497Y35625664D01*
X4212156Y35649371D01*
X4147580Y35657273D01*
X3909772Y35657273D01*
X3852543Y35649772D01*
X3823095Y35627269D01*
X3812538Y35597821D01*
X3810871Y35559483D01*
X3810871Y34942739D01*
X854305Y34942739D01*
X840604Y34981031D01*
X818510Y35069235D01*
X805168Y35159180D01*
X800707Y35250000D01*
X805168Y35340820D01*
X818510Y35430765D01*
X840604Y35518969D01*
X871238Y35604583D01*
X910115Y35686782D01*
X956862Y35764775D01*
X1011028Y35837810D01*
X1072093Y35905185D01*
X1139467Y35966249D01*
X1212502Y36020415D01*
X1290495Y36067163D01*
X1372694Y36106040D01*
X1458308Y36136673D01*
X1546512Y36158767D01*
X1636458Y36172109D01*
X1727277Y36176571D01*
X6772723Y36176571D01*
X6863543Y36172109D01*
G37*
G36*
X6026704Y35435579D02*
G01*
X6058930Y35361681D01*
X6026704Y35288338D01*
X5962251Y35263891D01*
X5820011Y35263891D01*
X5820011Y35460582D01*
X5960029Y35460582D01*
X6026704Y35435579D01*
G37*
G36*
X4213144Y35435579D02*
G01*
X4245370Y35361681D01*
X4213144Y35288338D01*
X4147580Y35263891D01*
X4007562Y35263891D01*
X4007562Y35460582D01*
X4146469Y35460582D01*
X4213144Y35435579D01*
G37*
G36*
X14383218Y36178192D02*
G01*
X14473757Y36164761D01*
X14562543Y36142522D01*
X14648721Y36111686D01*
X14731463Y36072553D01*
X14809970Y36025497D01*
X14883487Y35970973D01*
X14951305Y35909506D01*
X15012773Y35841688D01*
X15067296Y35768171D01*
X15114352Y35689664D01*
X15153486Y35606922D01*
X15184321Y35520743D01*
X15206561Y35431957D01*
X15219991Y35341419D01*
X15224482Y35250000D01*
X15219991Y35158581D01*
X15206561Y35068043D01*
X15184321Y34979257D01*
X15153486Y34893078D01*
X15114352Y34810336D01*
X15067296Y34731829D01*
X15012773Y34658312D01*
X14951305Y34590494D01*
X14883487Y34529027D01*
X14809970Y34474503D01*
X14731463Y34427447D01*
X14648721Y34388314D01*
X14562543Y34357478D01*
X14473757Y34335239D01*
X14383218Y34321808D01*
X14291799Y34317317D01*
X9208201Y34317317D01*
X9116782Y34321808D01*
X9026243Y34335239D01*
X8937457Y34357478D01*
X8851279Y34388314D01*
X8768537Y34427447D01*
X8690030Y34474503D01*
X8616513Y34529027D01*
X8548695Y34590494D01*
X8487227Y34658312D01*
X8432704Y34731829D01*
X8385648Y34810336D01*
X8346514Y34893078D01*
X8315679Y34979257D01*
X8293439Y35068043D01*
X8280009Y35158581D01*
X8275518Y35250000D01*
X8275627Y35252223D01*
X9254503Y35252223D01*
X9261865Y35168740D01*
X9283951Y35091647D01*
X9317427Y35024416D01*
X9358960Y34970521D01*
X9407439Y34926904D01*
X9461751Y34890511D01*
X9518147Y34862452D01*
X9572876Y34843838D01*
X9626494Y34833420D01*
X9679556Y34829947D01*
X9733313Y34834392D01*
X9789014Y34847727D01*
X9864024Y34876620D01*
X9902362Y34899956D01*
X9937366Y34927737D01*
X9942510Y34941072D01*
X10025710Y34941072D01*
X10032378Y34883287D01*
X10061826Y34852450D01*
X10123500Y34842171D01*
X10180730Y34849672D01*
X10210178Y34872175D01*
X10220735Y34901623D01*
X10222402Y34939961D01*
X10222402Y35166656D01*
X10516883Y35166656D01*
X10516883Y34941072D01*
X10523550Y34883287D01*
X10552999Y34852450D01*
X10614673Y34842171D01*
X10671902Y34849672D01*
X10701350Y34872175D01*
X10711907Y34901623D01*
X10713574Y34939961D01*
X10713574Y34941072D01*
X10802474Y34941072D01*
X10809142Y34883287D01*
X10838590Y34852450D01*
X10900264Y34842171D01*
X10957494Y34849672D01*
X10986942Y34872175D01*
X10997499Y34901623D01*
X10999165Y34939961D01*
X10999165Y35065532D01*
X11139183Y35065532D01*
X11173632Y35067755D01*
X11216847Y34965397D01*
X11245739Y34898351D01*
X11260309Y34866619D01*
X11280867Y34844949D01*
X11316427Y34834392D01*
X11373657Y34849950D01*
X11425330Y34882176D01*
X11442554Y34921070D01*
X11425885Y34978855D01*
X11394770Y35049605D01*
X11369582Y35107760D01*
X11350320Y35153321D01*
X11396623Y35212341D01*
X11414497Y35256668D01*
X11487004Y35256668D01*
X11494644Y35171553D01*
X11517564Y35092897D01*
X11555763Y35020701D01*
X11609242Y34954963D01*
X11673069Y34900269D01*
X11742314Y34861201D01*
X11816976Y34837761D01*
X11897055Y34829947D01*
X11984566Y34835990D01*
X12060409Y34854117D01*
X12124584Y34884329D01*
X12177090Y34926626D01*
X12208205Y34994412D01*
X12208205Y35238887D01*
X12197093Y35301118D01*
X12123750Y35332233D01*
X11928170Y35332233D01*
X11874830Y35322231D01*
X11856495Y35297784D01*
X11851494Y35250556D01*
X11855939Y35203883D01*
X11874830Y35177769D01*
X11923725Y35168879D01*
X12011514Y35168879D01*
X12011514Y35047752D01*
X11959563Y35032751D01*
X11901500Y35027750D01*
X11821490Y35044558D01*
X11750370Y35094981D01*
X11713329Y35143011D01*
X11691104Y35197463D01*
X11683695Y35258334D01*
X11700086Y35345290D01*
X11749259Y35413909D01*
X11819546Y35458498D01*
X11899278Y35473361D01*
X11959285Y35465721D01*
X12010403Y35442802D01*
X12078189Y35412243D01*
X12115694Y35426967D01*
X12157088Y35471139D01*
X12182647Y35533924D01*
X12152643Y35583375D01*
X12073250Y35631529D01*
X11990647Y35660422D01*
X11904834Y35670053D01*
X11823157Y35662656D01*
X11747037Y35640465D01*
X11676472Y35603482D01*
X11611464Y35551704D01*
X11557013Y35488884D01*
X11518119Y35418771D01*
X11494783Y35341366D01*
X11487004Y35256668D01*
X11414497Y35256668D01*
X11424404Y35281238D01*
X11433664Y35360014D01*
X11426441Y35428911D01*
X11404772Y35491141D01*
X11371990Y35543926D01*
X11331429Y35584486D01*
X11269323Y35623997D01*
X11205981Y35647704D01*
X11141405Y35655606D01*
X10901375Y35655606D01*
X10844146Y35648105D01*
X10814698Y35625603D01*
X10804141Y35596154D01*
X10802474Y35557816D01*
X10802474Y34941072D01*
X10713574Y34941072D01*
X10713574Y35556705D01*
X10708018Y35614490D01*
X10692460Y35636715D01*
X10663568Y35650050D01*
X10612450Y35655606D01*
X10559110Y35648939D01*
X10529107Y35625603D01*
X10518550Y35596154D01*
X10516883Y35557816D01*
X10516883Y35330010D01*
X10222402Y35330010D01*
X10222402Y35556705D01*
X10216845Y35614490D01*
X10186564Y35645327D01*
X10124612Y35655606D01*
X10067382Y35648105D01*
X10037934Y35625603D01*
X10027377Y35596154D01*
X10025710Y35557816D01*
X10025710Y34941072D01*
X9942510Y34941072D01*
X9952368Y34966631D01*
X9927920Y35028861D01*
X9889305Y35075534D01*
X9853467Y35091091D01*
X9800127Y35068866D01*
X9780124Y35054420D01*
X9736230Y35036640D01*
X9671222Y35027750D01*
X9599268Y35039974D01*
X9530093Y35076645D01*
X9473419Y35146654D01*
X9456750Y35194021D01*
X9451194Y35247222D01*
X9456750Y35300423D01*
X9473419Y35347790D01*
X9528982Y35416688D01*
X9599546Y35454192D01*
X9671222Y35466694D01*
X9741230Y35457248D01*
X9795682Y35428911D01*
X9852355Y35404464D01*
X9889027Y35419466D01*
X9930143Y35464471D01*
X9953479Y35526146D01*
X9924587Y35578930D01*
X9893472Y35598933D01*
X9866802Y35614490D01*
X9785125Y35647272D01*
X9731646Y35659357D01*
X9679000Y35663385D01*
X9605781Y35656718D01*
X9532809Y35636715D01*
X9460084Y35603378D01*
X9405494Y35568512D01*
X9357294Y35526146D01*
X9316316Y35473917D01*
X9283395Y35409464D01*
X9261726Y35334872D01*
X9254503Y35252223D01*
X8275627Y35252223D01*
X8280009Y35341419D01*
X8293439Y35431957D01*
X8315679Y35520743D01*
X8346514Y35606922D01*
X8385648Y35689664D01*
X8432704Y35768171D01*
X8487227Y35841688D01*
X8548695Y35909506D01*
X8616513Y35970973D01*
X8690030Y36025497D01*
X8768537Y36072553D01*
X8851279Y36111686D01*
X8937457Y36142522D01*
X9026243Y36164761D01*
X9116782Y36178192D01*
X9208201Y36182683D01*
X14291799Y36182683D01*
X14383218Y36178192D01*
G37*
G36*
X11205858Y35433912D02*
G01*
X11238084Y35360014D01*
X11205858Y35286671D01*
X11141405Y35262224D01*
X10999165Y35262224D01*
X10999165Y35458915D01*
X11139183Y35458915D01*
X11205858Y35433912D01*
G37*
%LPC*%
D11*
X1000000Y37650000D03*
X1000000Y38350000D03*
D12*
X2250000Y30300000D03*
X2750000Y30300000D03*
X3250000Y30300000D03*
X3250000Y31700000D03*
X2250000Y31700000D03*
D13*
X2240000Y32750000D03*
X3260000Y32750000D03*
D14*
X11500000Y32760000D03*
X11500000Y31740000D03*
X4500000Y32760000D03*
X4500000Y31740000D03*
D15*
X2000000Y40000000D03*
X2000000Y41020000D03*
X14000000Y39990000D03*
X14000000Y41010000D03*
D16*
X5110000Y38750000D03*
X10890000Y38750000D03*
D17*
X11250000Y37400000D03*
X10450000Y37400000D03*
D18*
X9250000Y37400000D03*
X8250000Y37400000D03*
X7750000Y37400000D03*
X6750000Y37400000D03*
D17*
X4750000Y37400000D03*
X5550000Y37400000D03*
D18*
X6250000Y37400000D03*
X7250000Y37400000D03*
X8750000Y37400000D03*
X9750000Y37400000D03*
D19*
X12320000Y42400000D03*
D20*
X3680000Y38220000D03*
X12320000Y38220000D03*
D19*
X3680000Y42400000D03*
D21*
X2000000Y38485000D03*
X2000000Y37515000D03*
D22*
X13265000Y35250000D03*
X14235000Y35250000D03*
D23*
X2735000Y35250000D03*
X1765000Y35250000D03*
D24*
X2270000Y29250000D03*
X3230000Y29250000D03*
D25*
X1000000Y31480000D03*
X1000000Y30520000D03*
D26*
X8000000Y2100000D03*
X8000000Y31400000D03*
M02*
