%FSLAX45Y45*%
G04 Gerber Fmt 4.5, Leading zero omitted, Abs format (unit mm)*
G04 Created by KiCad (PCBNEW (5.99.0-13283-gf5fc9fa11f)) date 2021-11-15 23:56:03*
%MOMM*%
%LPD*%
G01*
G04 APERTURE LIST*
%TA.AperFunction,Profile*%
%ADD10C,0.150000*%
%TD*%
%ADD11C,0.200000*%
%ADD12C,0.060000*%
%ADD13C,0.065000*%
G04 APERTURE END LIST*
D10*
X1400000Y0D02*
X200000Y0D01*
X0Y200000D02*
X0Y4300000D01*
X1400000Y4500000D02*
X200000Y4500000D01*
X1600000Y200000D02*
X1600000Y4300000D01*
X200000Y4500000D02*
G75*
G03*
X0Y4300000I0J-200000D01*
G01*
X1600000Y4300000D02*
G75*
G03*
X1400000Y4500000I-200000J0D01*
G01*
X0Y200000D02*
G75*
G03*
X200000Y0I200000J0D01*
G01*
X1400000Y0D02*
G75*
G03*
X1600000Y200000I0J200000D01*
G01*
D11*
D12*
X338000Y4270000D02*
X398000Y4210000D01*
X398000Y4270000D02*
X338000Y4210000D01*
D11*
X388000Y4210000D02*
X388000Y4270000D01*
X348000Y4210000D02*
X348000Y4270000D01*
X388000Y4270000D02*
G75*
G03*
X348000Y4270000I-20000J0D01*
G01*
X348000Y4210000D02*
G75*
G03*
X388000Y4210000I20000J0D01*
G01*
D12*
X338000Y3852000D02*
X398000Y3792000D01*
X398000Y3852000D02*
X338000Y3792000D01*
D11*
X388000Y3767000D02*
X388000Y3877000D01*
X348000Y3767000D02*
X348000Y3877000D01*
X388000Y3877000D02*
G75*
G03*
X348000Y3877000I-20000J0D01*
G01*
X348000Y3767000D02*
G75*
G03*
X388000Y3767000I20000J0D01*
G01*
D12*
X1202000Y4270000D02*
X1262000Y4210000D01*
X1262000Y4270000D02*
X1202000Y4210000D01*
D11*
X1252000Y4210000D02*
X1252000Y4270000D01*
X1212000Y4210000D02*
X1212000Y4270000D01*
X1252000Y4270000D02*
G75*
G03*
X1212000Y4270000I-20000J0D01*
G01*
X1212000Y4210000D02*
G75*
G03*
X1252000Y4210000I20000J0D01*
G01*
D12*
X1202000Y3852000D02*
X1262000Y3792000D01*
X1262000Y3852000D02*
X1202000Y3792000D01*
D11*
X1252000Y3767000D02*
X1252000Y3877000D01*
X1212000Y3767000D02*
X1212000Y3877000D01*
X1252000Y3877000D02*
G75*
G03*
X1212000Y3877000I-20000J0D01*
G01*
X1212000Y3767000D02*
G75*
G03*
X1252000Y3767000I20000J0D01*
G01*
D13*
X543500Y3875000D02*
G75*
G03*
X543500Y3875000I-32500J0D01*
G01*
X1121500Y3875000D02*
G75*
G03*
X1121500Y3875000I-32500J0D01*
G01*
D11*
X250119Y-317976D02*
X250119Y-117976D01*
X297738Y-117976D01*
X326310Y-127500D01*
X345357Y-146548D01*
X354881Y-165595D01*
X364405Y-203690D01*
X364405Y-232262D01*
X354881Y-270357D01*
X345357Y-289405D01*
X326310Y-308452D01*
X297738Y-317976D01*
X250119Y-317976D01*
X450119Y-317976D02*
X450119Y-184643D01*
X450119Y-222738D02*
X459643Y-203690D01*
X469167Y-194167D01*
X488214Y-184643D01*
X507262Y-184643D01*
X573929Y-317976D02*
X573929Y-184643D01*
X573929Y-117976D02*
X564405Y-127500D01*
X573929Y-137024D01*
X583452Y-127500D01*
X573929Y-117976D01*
X573929Y-137024D01*
X697738Y-317976D02*
X678690Y-308452D01*
X669167Y-289405D01*
X669167Y-117976D01*
X802500Y-317976D02*
X783452Y-308452D01*
X773928Y-289405D01*
X773928Y-117976D01*
X1031071Y-317976D02*
X1031071Y-117976D01*
X1097738Y-260833D01*
X1164405Y-117976D01*
X1164405Y-317976D01*
X1345357Y-317976D02*
X1345357Y-213214D01*
X1335833Y-194167D01*
X1316786Y-184643D01*
X1278690Y-184643D01*
X1259643Y-194167D01*
X1345357Y-308452D02*
X1326310Y-317976D01*
X1278690Y-317976D01*
X1259643Y-308452D01*
X1250119Y-289405D01*
X1250119Y-270357D01*
X1259643Y-251309D01*
X1278690Y-241786D01*
X1326310Y-241786D01*
X1345357Y-232262D01*
X1440595Y-184643D02*
X1440595Y-384643D01*
X1440595Y-194167D02*
X1459643Y-184643D01*
X1497738Y-184643D01*
X1516786Y-194167D01*
X1526309Y-203690D01*
X1535833Y-222738D01*
X1535833Y-279881D01*
X1526309Y-298929D01*
X1516786Y-308452D01*
X1497738Y-317976D01*
X1459643Y-317976D01*
X1440595Y-308452D01*
X1621548Y-298929D02*
X1631071Y-308452D01*
X1621548Y-317976D01*
X1612024Y-308452D01*
X1621548Y-298929D01*
X1621548Y-317976D01*
X1621548Y-194167D02*
X1631071Y-203690D01*
X1621548Y-213214D01*
X1612024Y-203690D01*
X1621548Y-194167D01*
X1621548Y-213214D01*
D12*
X-67500Y-617500D02*
X-7500Y-677500D01*
X-7500Y-617500D02*
X-67500Y-677500D01*
D11*
X288214Y-537976D02*
X307262Y-537976D01*
X326310Y-547500D01*
X335833Y-557024D01*
X345357Y-576071D01*
X354881Y-614167D01*
X354881Y-661786D01*
X345357Y-699881D01*
X335833Y-718928D01*
X326310Y-728452D01*
X307262Y-737976D01*
X288214Y-737976D01*
X269167Y-728452D01*
X259643Y-718928D01*
X250119Y-699881D01*
X240595Y-661786D01*
X240595Y-614167D01*
X250119Y-576071D01*
X259643Y-557024D01*
X269167Y-547500D01*
X288214Y-537976D01*
X440595Y-718928D02*
X450119Y-728452D01*
X440595Y-737976D01*
X431071Y-728452D01*
X440595Y-718928D01*
X440595Y-737976D01*
X621548Y-537976D02*
X583452Y-537976D01*
X564405Y-547500D01*
X554881Y-557024D01*
X535833Y-585595D01*
X526310Y-623690D01*
X526310Y-699881D01*
X535833Y-718928D01*
X545357Y-728452D01*
X564405Y-737976D01*
X602500Y-737976D01*
X621548Y-728452D01*
X631071Y-718928D01*
X640595Y-699881D01*
X640595Y-652262D01*
X631071Y-633214D01*
X621548Y-623690D01*
X602500Y-614167D01*
X564405Y-614167D01*
X545357Y-623690D01*
X535833Y-633214D01*
X526310Y-652262D01*
X764405Y-537976D02*
X783452Y-537976D01*
X802500Y-547500D01*
X812024Y-557024D01*
X821548Y-576071D01*
X831071Y-614167D01*
X831071Y-661786D01*
X821548Y-699881D01*
X812024Y-718928D01*
X802500Y-728452D01*
X783452Y-737976D01*
X764405Y-737976D01*
X745357Y-728452D01*
X735833Y-718928D01*
X726309Y-699881D01*
X716786Y-661786D01*
X716786Y-614167D01*
X726309Y-576071D01*
X735833Y-557024D01*
X745357Y-547500D01*
X764405Y-537976D01*
X954881Y-537976D02*
X973928Y-537976D01*
X992976Y-547500D01*
X1002500Y-557024D01*
X1012024Y-576071D01*
X1021548Y-614167D01*
X1021548Y-661786D01*
X1012024Y-699881D01*
X1002500Y-718928D01*
X992976Y-728452D01*
X973928Y-737976D01*
X954881Y-737976D01*
X935833Y-728452D01*
X926309Y-718928D01*
X916786Y-699881D01*
X907262Y-661786D01*
X907262Y-614167D01*
X916786Y-576071D01*
X926309Y-557024D01*
X935833Y-547500D01*
X954881Y-537976D01*
X1107262Y-737976D02*
X1107262Y-604643D01*
X1107262Y-623690D02*
X1116786Y-614167D01*
X1135833Y-604643D01*
X1164405Y-604643D01*
X1183452Y-614167D01*
X1192976Y-633214D01*
X1192976Y-737976D01*
X1192976Y-633214D02*
X1202500Y-614167D01*
X1221548Y-604643D01*
X1250119Y-604643D01*
X1269167Y-614167D01*
X1278690Y-633214D01*
X1278690Y-737976D01*
X1373929Y-737976D02*
X1373929Y-604643D01*
X1373929Y-623690D02*
X1383452Y-614167D01*
X1402500Y-604643D01*
X1431071Y-604643D01*
X1450119Y-614167D01*
X1459643Y-633214D01*
X1459643Y-737976D01*
X1459643Y-633214D02*
X1469167Y-614167D01*
X1488214Y-604643D01*
X1516786Y-604643D01*
X1535833Y-614167D01*
X1545357Y-633214D01*
X1545357Y-737976D01*
X1935833Y-528452D02*
X1764405Y-785595D01*
X2192976Y-537976D02*
X2212024Y-537976D01*
X2231071Y-547500D01*
X2240595Y-557024D01*
X2250119Y-576071D01*
X2259643Y-614167D01*
X2259643Y-661786D01*
X2250119Y-699881D01*
X2240595Y-718928D01*
X2231071Y-728452D01*
X2212024Y-737976D01*
X2192976Y-737976D01*
X2173929Y-728452D01*
X2164405Y-718928D01*
X2154881Y-699881D01*
X2145357Y-661786D01*
X2145357Y-614167D01*
X2154881Y-576071D01*
X2164405Y-557024D01*
X2173929Y-547500D01*
X2192976Y-537976D01*
X2345357Y-718928D02*
X2354881Y-728452D01*
X2345357Y-737976D01*
X2335833Y-728452D01*
X2345357Y-718928D01*
X2345357Y-737976D01*
X2478690Y-537976D02*
X2497738Y-537976D01*
X2516786Y-547500D01*
X2526310Y-557024D01*
X2535833Y-576071D01*
X2545357Y-614167D01*
X2545357Y-661786D01*
X2535833Y-699881D01*
X2526310Y-718928D01*
X2516786Y-728452D01*
X2497738Y-737976D01*
X2478690Y-737976D01*
X2459643Y-728452D01*
X2450119Y-718928D01*
X2440595Y-699881D01*
X2431071Y-661786D01*
X2431071Y-614167D01*
X2440595Y-576071D01*
X2450119Y-557024D01*
X2459643Y-547500D01*
X2478690Y-537976D01*
X2621548Y-557024D02*
X2631071Y-547500D01*
X2650119Y-537976D01*
X2697738Y-537976D01*
X2716786Y-547500D01*
X2726310Y-557024D01*
X2735833Y-576071D01*
X2735833Y-595119D01*
X2726310Y-623690D01*
X2612024Y-737976D01*
X2735833Y-737976D01*
X2802500Y-537976D02*
X2926309Y-537976D01*
X2859643Y-614167D01*
X2888214Y-614167D01*
X2907262Y-623690D01*
X2916786Y-633214D01*
X2926309Y-652262D01*
X2926309Y-699881D01*
X2916786Y-718928D01*
X2907262Y-728452D01*
X2888214Y-737976D01*
X2831071Y-737976D01*
X2812024Y-728452D01*
X2802500Y-718928D01*
X3097738Y-537976D02*
X3059643Y-537976D01*
X3040595Y-547500D01*
X3031071Y-557024D01*
X3012024Y-585595D01*
X3002500Y-623690D01*
X3002500Y-699881D01*
X3012024Y-718928D01*
X3021548Y-728452D01*
X3040595Y-737976D01*
X3078690Y-737976D01*
X3097738Y-728452D01*
X3107262Y-718928D01*
X3116786Y-699881D01*
X3116786Y-652262D01*
X3107262Y-633214D01*
X3097738Y-623690D01*
X3078690Y-614167D01*
X3040595Y-614167D01*
X3021548Y-623690D01*
X3012024Y-633214D01*
X3002500Y-652262D01*
X3192976Y-537976D02*
X3192976Y-576071D01*
X3269167Y-537976D02*
X3269167Y-576071D01*
X3564405Y-814167D02*
X3554881Y-804643D01*
X3535833Y-776071D01*
X3526309Y-757024D01*
X3516786Y-728452D01*
X3507262Y-680833D01*
X3507262Y-642738D01*
X3516786Y-595119D01*
X3526309Y-566548D01*
X3535833Y-547500D01*
X3554881Y-518928D01*
X3564405Y-509405D01*
X3678690Y-537976D02*
X3697738Y-537976D01*
X3716786Y-547500D01*
X3726309Y-557024D01*
X3735833Y-576071D01*
X3745357Y-614167D01*
X3745357Y-661786D01*
X3735833Y-699881D01*
X3726309Y-718928D01*
X3716786Y-728452D01*
X3697738Y-737976D01*
X3678690Y-737976D01*
X3659643Y-728452D01*
X3650119Y-718928D01*
X3640595Y-699881D01*
X3631071Y-661786D01*
X3631071Y-614167D01*
X3640595Y-576071D01*
X3650119Y-557024D01*
X3659643Y-547500D01*
X3678690Y-537976D01*
X3983452Y-737976D02*
X3983452Y-537976D01*
X4069167Y-737976D02*
X4069167Y-633214D01*
X4059643Y-614167D01*
X4040595Y-604643D01*
X4012024Y-604643D01*
X3992976Y-614167D01*
X3983452Y-623690D01*
X4192976Y-737976D02*
X4173928Y-728452D01*
X4164405Y-718928D01*
X4154881Y-699881D01*
X4154881Y-642738D01*
X4164405Y-623690D01*
X4173928Y-614167D01*
X4192976Y-604643D01*
X4221548Y-604643D01*
X4240595Y-614167D01*
X4250119Y-623690D01*
X4259643Y-642738D01*
X4259643Y-699881D01*
X4250119Y-718928D01*
X4240595Y-728452D01*
X4221548Y-737976D01*
X4192976Y-737976D01*
X4373929Y-737976D02*
X4354881Y-728452D01*
X4345357Y-709405D01*
X4345357Y-537976D01*
X4526310Y-728452D02*
X4507262Y-737976D01*
X4469167Y-737976D01*
X4450119Y-728452D01*
X4440595Y-709405D01*
X4440595Y-633214D01*
X4450119Y-614167D01*
X4469167Y-604643D01*
X4507262Y-604643D01*
X4526310Y-614167D01*
X4535833Y-633214D01*
X4535833Y-652262D01*
X4440595Y-671310D01*
X4612024Y-728452D02*
X4631071Y-737976D01*
X4669167Y-737976D01*
X4688214Y-728452D01*
X4697738Y-709405D01*
X4697738Y-699881D01*
X4688214Y-680833D01*
X4669167Y-671310D01*
X4640595Y-671310D01*
X4621548Y-661786D01*
X4612024Y-642738D01*
X4612024Y-633214D01*
X4621548Y-614167D01*
X4640595Y-604643D01*
X4669167Y-604643D01*
X4688214Y-614167D01*
X4935833Y-661786D02*
X5088214Y-661786D01*
X5012024Y-737976D02*
X5012024Y-585595D01*
X5421548Y-604643D02*
X5421548Y-737976D01*
X5373929Y-528452D02*
X5326310Y-671310D01*
X5450119Y-671310D01*
X5669167Y-728452D02*
X5688214Y-737976D01*
X5726309Y-737976D01*
X5745357Y-728452D01*
X5754881Y-709405D01*
X5754881Y-699881D01*
X5745357Y-680833D01*
X5726309Y-671310D01*
X5697738Y-671310D01*
X5678690Y-661786D01*
X5669167Y-642738D01*
X5669167Y-633214D01*
X5678690Y-614167D01*
X5697738Y-604643D01*
X5726309Y-604643D01*
X5745357Y-614167D01*
X5869167Y-737976D02*
X5850119Y-728452D01*
X5840595Y-709405D01*
X5840595Y-537976D01*
X5973928Y-737976D02*
X5954881Y-728452D01*
X5945357Y-718928D01*
X5935833Y-699881D01*
X5935833Y-642738D01*
X5945357Y-623690D01*
X5954881Y-614167D01*
X5973928Y-604643D01*
X6002500Y-604643D01*
X6021548Y-614167D01*
X6031071Y-623690D01*
X6040595Y-642738D01*
X6040595Y-699881D01*
X6031071Y-718928D01*
X6021548Y-728452D01*
X6002500Y-737976D01*
X5973928Y-737976D01*
X6097738Y-604643D02*
X6173928Y-604643D01*
X6126309Y-537976D02*
X6126309Y-709405D01*
X6135833Y-728452D01*
X6154881Y-737976D01*
X6173928Y-737976D01*
X6231071Y-728452D02*
X6250119Y-737976D01*
X6288214Y-737976D01*
X6307262Y-728452D01*
X6316786Y-709405D01*
X6316786Y-699881D01*
X6307262Y-680833D01*
X6288214Y-671310D01*
X6259643Y-671310D01*
X6240595Y-661786D01*
X6231071Y-642738D01*
X6231071Y-633214D01*
X6240595Y-614167D01*
X6259643Y-604643D01*
X6288214Y-604643D01*
X6307262Y-614167D01*
X6383452Y-814167D02*
X6392976Y-804643D01*
X6412024Y-776071D01*
X6421548Y-757024D01*
X6431071Y-728452D01*
X6440595Y-680833D01*
X6440595Y-642738D01*
X6431071Y-595119D01*
X6421548Y-566548D01*
X6412024Y-547500D01*
X6392976Y-518928D01*
X6383452Y-509405D01*
D13*
X-7500Y-911500D02*
G75*
G03*
X-7500Y-911500I-32500J0D01*
G01*
D11*
X288214Y-801976D02*
X307262Y-801976D01*
X326310Y-811500D01*
X335833Y-821024D01*
X345357Y-840071D01*
X354881Y-878167D01*
X354881Y-925786D01*
X345357Y-963881D01*
X335833Y-982928D01*
X326310Y-992452D01*
X307262Y-1001976D01*
X288214Y-1001976D01*
X269167Y-992452D01*
X259643Y-982928D01*
X250119Y-963881D01*
X240595Y-925786D01*
X240595Y-878167D01*
X250119Y-840071D01*
X259643Y-821024D01*
X269167Y-811500D01*
X288214Y-801976D01*
X440595Y-982928D02*
X450119Y-992452D01*
X440595Y-1001976D01*
X431071Y-992452D01*
X440595Y-982928D01*
X440595Y-1001976D01*
X621548Y-801976D02*
X583452Y-801976D01*
X564405Y-811500D01*
X554881Y-821024D01*
X535833Y-849595D01*
X526310Y-887690D01*
X526310Y-963881D01*
X535833Y-982928D01*
X545357Y-992452D01*
X564405Y-1001976D01*
X602500Y-1001976D01*
X621548Y-992452D01*
X631071Y-982928D01*
X640595Y-963881D01*
X640595Y-916262D01*
X631071Y-897214D01*
X621548Y-887690D01*
X602500Y-878167D01*
X564405Y-878167D01*
X545357Y-887690D01*
X535833Y-897214D01*
X526310Y-916262D01*
X821548Y-801976D02*
X726309Y-801976D01*
X716786Y-897214D01*
X726309Y-887690D01*
X745357Y-878167D01*
X792976Y-878167D01*
X812024Y-887690D01*
X821548Y-897214D01*
X831071Y-916262D01*
X831071Y-963881D01*
X821548Y-982928D01*
X812024Y-992452D01*
X792976Y-1001976D01*
X745357Y-1001976D01*
X726309Y-992452D01*
X716786Y-982928D01*
X954881Y-801976D02*
X973928Y-801976D01*
X992976Y-811500D01*
X1002500Y-821024D01*
X1012024Y-840071D01*
X1021548Y-878167D01*
X1021548Y-925786D01*
X1012024Y-963881D01*
X1002500Y-982928D01*
X992976Y-992452D01*
X973928Y-1001976D01*
X954881Y-1001976D01*
X935833Y-992452D01*
X926309Y-982928D01*
X916786Y-963881D01*
X907262Y-925786D01*
X907262Y-878167D01*
X916786Y-840071D01*
X926309Y-821024D01*
X935833Y-811500D01*
X954881Y-801976D01*
X1107262Y-1001976D02*
X1107262Y-868643D01*
X1107262Y-887690D02*
X1116786Y-878167D01*
X1135833Y-868643D01*
X1164405Y-868643D01*
X1183452Y-878167D01*
X1192976Y-897214D01*
X1192976Y-1001976D01*
X1192976Y-897214D02*
X1202500Y-878167D01*
X1221548Y-868643D01*
X1250119Y-868643D01*
X1269167Y-878167D01*
X1278690Y-897214D01*
X1278690Y-1001976D01*
X1373929Y-1001976D02*
X1373929Y-868643D01*
X1373929Y-887690D02*
X1383452Y-878167D01*
X1402500Y-868643D01*
X1431071Y-868643D01*
X1450119Y-878167D01*
X1459643Y-897214D01*
X1459643Y-1001976D01*
X1459643Y-897214D02*
X1469167Y-878167D01*
X1488214Y-868643D01*
X1516786Y-868643D01*
X1535833Y-878167D01*
X1545357Y-897214D01*
X1545357Y-1001976D01*
X1935833Y-792452D02*
X1764405Y-1049595D01*
X2192976Y-801976D02*
X2212024Y-801976D01*
X2231071Y-811500D01*
X2240595Y-821024D01*
X2250119Y-840071D01*
X2259643Y-878167D01*
X2259643Y-925786D01*
X2250119Y-963881D01*
X2240595Y-982928D01*
X2231071Y-992452D01*
X2212024Y-1001976D01*
X2192976Y-1001976D01*
X2173929Y-992452D01*
X2164405Y-982928D01*
X2154881Y-963881D01*
X2145357Y-925786D01*
X2145357Y-878167D01*
X2154881Y-840071D01*
X2164405Y-821024D01*
X2173929Y-811500D01*
X2192976Y-801976D01*
X2345357Y-982928D02*
X2354881Y-992452D01*
X2345357Y-1001976D01*
X2335833Y-992452D01*
X2345357Y-982928D01*
X2345357Y-1001976D01*
X2478690Y-801976D02*
X2497738Y-801976D01*
X2516786Y-811500D01*
X2526310Y-821024D01*
X2535833Y-840071D01*
X2545357Y-878167D01*
X2545357Y-925786D01*
X2535833Y-963881D01*
X2526310Y-982928D01*
X2516786Y-992452D01*
X2497738Y-1001976D01*
X2478690Y-1001976D01*
X2459643Y-992452D01*
X2450119Y-982928D01*
X2440595Y-963881D01*
X2431071Y-925786D01*
X2431071Y-878167D01*
X2440595Y-840071D01*
X2450119Y-821024D01*
X2459643Y-811500D01*
X2478690Y-801976D01*
X2621548Y-821024D02*
X2631071Y-811500D01*
X2650119Y-801976D01*
X2697738Y-801976D01*
X2716786Y-811500D01*
X2726310Y-821024D01*
X2735833Y-840071D01*
X2735833Y-859119D01*
X2726310Y-887690D01*
X2612024Y-1001976D01*
X2735833Y-1001976D01*
X2916786Y-801976D02*
X2821548Y-801976D01*
X2812024Y-897214D01*
X2821548Y-887690D01*
X2840595Y-878167D01*
X2888214Y-878167D01*
X2907262Y-887690D01*
X2916786Y-897214D01*
X2926309Y-916262D01*
X2926309Y-963881D01*
X2916786Y-982928D01*
X2907262Y-992452D01*
X2888214Y-1001976D01*
X2840595Y-1001976D01*
X2821548Y-992452D01*
X2812024Y-982928D01*
X3097738Y-801976D02*
X3059643Y-801976D01*
X3040595Y-811500D01*
X3031071Y-821024D01*
X3012024Y-849595D01*
X3002500Y-887690D01*
X3002500Y-963881D01*
X3012024Y-982928D01*
X3021548Y-992452D01*
X3040595Y-1001976D01*
X3078690Y-1001976D01*
X3097738Y-992452D01*
X3107262Y-982928D01*
X3116786Y-963881D01*
X3116786Y-916262D01*
X3107262Y-897214D01*
X3097738Y-887690D01*
X3078690Y-878167D01*
X3040595Y-878167D01*
X3021548Y-887690D01*
X3012024Y-897214D01*
X3002500Y-916262D01*
X3192976Y-801976D02*
X3192976Y-840071D01*
X3269167Y-801976D02*
X3269167Y-840071D01*
X3564405Y-1078167D02*
X3554881Y-1068643D01*
X3535833Y-1040071D01*
X3526309Y-1021024D01*
X3516786Y-992452D01*
X3507262Y-944833D01*
X3507262Y-906738D01*
X3516786Y-859119D01*
X3526309Y-830548D01*
X3535833Y-811500D01*
X3554881Y-782928D01*
X3564405Y-773405D01*
X3631071Y-821024D02*
X3640595Y-811500D01*
X3659643Y-801976D01*
X3707262Y-801976D01*
X3726309Y-811500D01*
X3735833Y-821024D01*
X3745357Y-840071D01*
X3745357Y-859119D01*
X3735833Y-887690D01*
X3621548Y-1001976D01*
X3745357Y-1001976D01*
X3983452Y-1001976D02*
X3983452Y-801976D01*
X4069167Y-1001976D02*
X4069167Y-897214D01*
X4059643Y-878167D01*
X4040595Y-868643D01*
X4012024Y-868643D01*
X3992976Y-878167D01*
X3983452Y-887690D01*
X4192976Y-1001976D02*
X4173928Y-992452D01*
X4164405Y-982928D01*
X4154881Y-963881D01*
X4154881Y-906738D01*
X4164405Y-887690D01*
X4173928Y-878167D01*
X4192976Y-868643D01*
X4221548Y-868643D01*
X4240595Y-878167D01*
X4250119Y-887690D01*
X4259643Y-906738D01*
X4259643Y-963881D01*
X4250119Y-982928D01*
X4240595Y-992452D01*
X4221548Y-1001976D01*
X4192976Y-1001976D01*
X4373929Y-1001976D02*
X4354881Y-992452D01*
X4345357Y-973405D01*
X4345357Y-801976D01*
X4526310Y-992452D02*
X4507262Y-1001976D01*
X4469167Y-1001976D01*
X4450119Y-992452D01*
X4440595Y-973405D01*
X4440595Y-897214D01*
X4450119Y-878167D01*
X4469167Y-868643D01*
X4507262Y-868643D01*
X4526310Y-878167D01*
X4535833Y-897214D01*
X4535833Y-916262D01*
X4440595Y-935309D01*
X4612024Y-992452D02*
X4631071Y-1001976D01*
X4669167Y-1001976D01*
X4688214Y-992452D01*
X4697738Y-973405D01*
X4697738Y-963881D01*
X4688214Y-944833D01*
X4669167Y-935309D01*
X4640595Y-935309D01*
X4621548Y-925786D01*
X4612024Y-906738D01*
X4612024Y-897214D01*
X4621548Y-878167D01*
X4640595Y-868643D01*
X4669167Y-868643D01*
X4688214Y-878167D01*
X4764405Y-1078167D02*
X4773929Y-1068643D01*
X4792976Y-1040071D01*
X4802500Y-1021024D01*
X4812024Y-992452D01*
X4821548Y-944833D01*
X4821548Y-906738D01*
X4812024Y-859119D01*
X4802500Y-830548D01*
X4792976Y-811500D01*
X4773929Y-782928D01*
X4764405Y-773405D01*
X5126310Y-1078167D02*
X5116786Y-1068643D01*
X5097738Y-1040071D01*
X5088214Y-1021024D01*
X5078690Y-992452D01*
X5069167Y-944833D01*
X5069167Y-906738D01*
X5078690Y-859119D01*
X5088214Y-830548D01*
X5097738Y-811500D01*
X5116786Y-782928D01*
X5126310Y-773405D01*
X5202500Y-868643D02*
X5202500Y-1001976D01*
X5202500Y-887690D02*
X5212024Y-878167D01*
X5231071Y-868643D01*
X5259643Y-868643D01*
X5278690Y-878167D01*
X5288214Y-897214D01*
X5288214Y-1001976D01*
X5412024Y-1001976D02*
X5392976Y-992452D01*
X5383452Y-982928D01*
X5373929Y-963881D01*
X5373929Y-906738D01*
X5383452Y-887690D01*
X5392976Y-878167D01*
X5412024Y-868643D01*
X5440595Y-868643D01*
X5459643Y-878167D01*
X5469167Y-887690D01*
X5478690Y-906738D01*
X5478690Y-963881D01*
X5469167Y-982928D01*
X5459643Y-992452D01*
X5440595Y-1001976D01*
X5412024Y-1001976D01*
X5535833Y-868643D02*
X5612024Y-868643D01*
X5564405Y-801976D02*
X5564405Y-973405D01*
X5573929Y-992452D01*
X5592976Y-1001976D01*
X5612024Y-1001976D01*
X5831071Y-868643D02*
X5831071Y-1068643D01*
X5831071Y-878167D02*
X5850119Y-868643D01*
X5888214Y-868643D01*
X5907262Y-878167D01*
X5916786Y-887690D01*
X5926309Y-906738D01*
X5926309Y-963881D01*
X5916786Y-982928D01*
X5907262Y-992452D01*
X5888214Y-1001976D01*
X5850119Y-1001976D01*
X5831071Y-992452D01*
X6040595Y-1001976D02*
X6021548Y-992452D01*
X6012024Y-973405D01*
X6012024Y-801976D01*
X6202500Y-1001976D02*
X6202500Y-897214D01*
X6192976Y-878167D01*
X6173928Y-868643D01*
X6135833Y-868643D01*
X6116786Y-878167D01*
X6202500Y-992452D02*
X6183452Y-1001976D01*
X6135833Y-1001976D01*
X6116786Y-992452D01*
X6107262Y-973405D01*
X6107262Y-954357D01*
X6116786Y-935309D01*
X6135833Y-925786D01*
X6183452Y-925786D01*
X6202500Y-916262D01*
X6269167Y-868643D02*
X6345357Y-868643D01*
X6297738Y-801976D02*
X6297738Y-973405D01*
X6307262Y-992452D01*
X6326309Y-1001976D01*
X6345357Y-1001976D01*
X6488214Y-992452D02*
X6469167Y-1001976D01*
X6431071Y-1001976D01*
X6412024Y-992452D01*
X6402500Y-973405D01*
X6402500Y-897214D01*
X6412024Y-878167D01*
X6431071Y-868643D01*
X6469167Y-868643D01*
X6488214Y-878167D01*
X6497738Y-897214D01*
X6497738Y-916262D01*
X6402500Y-935309D01*
X6669167Y-1001976D02*
X6669167Y-801976D01*
X6669167Y-992452D02*
X6650119Y-1001976D01*
X6612024Y-1001976D01*
X6592976Y-992452D01*
X6583452Y-982928D01*
X6573928Y-963881D01*
X6573928Y-906738D01*
X6583452Y-887690D01*
X6592976Y-878167D01*
X6612024Y-868643D01*
X6650119Y-868643D01*
X6669167Y-878167D01*
X6745357Y-1078167D02*
X6754881Y-1068643D01*
X6773928Y-1040071D01*
X6783452Y-1021024D01*
X6792976Y-992452D01*
X6802500Y-944833D01*
X6802500Y-906738D01*
X6792976Y-859119D01*
X6783452Y-830548D01*
X6773928Y-811500D01*
X6754881Y-782928D01*
X6745357Y-773405D01*
M02*
