%TF.GenerationSoftware,KiCad,Pcbnew,(5.99.0-13283-gf5fc9fa11f)*%
%TF.CreationDate,2021-11-15T23:55:46+03:00*%
%TF.ProjectId,LIR2032_Battery_Charger,4c495232-3033-4325-9f42-617474657279,rev?*%
%TF.SameCoordinates,PX8f0d180PY5f5e100*%
%TF.FileFunction,Copper,L2,Bot*%
%TF.FilePolarity,Positive*%
%FSLAX46Y46*%
G04 Gerber Fmt 4.6, Leading zero omitted, Abs format (unit mm)*
G04 Created by KiCad (PCBNEW (5.99.0-13283-gf5fc9fa11f)) date 2021-11-15 23:55:46*
%MOMM*%
%LPD*%
G01*
G04 APERTURE LIST*
%TA.AperFunction,ComponentPad*%
%ADD10O,1.000000X1.600000*%
%TD*%
%TA.AperFunction,ComponentPad*%
%ADD11O,1.000000X2.100000*%
%TD*%
G04 APERTURE END LIST*
D10*
X12320000Y42400000D03*
D11*
X3680000Y38220000D03*
X12320000Y38220000D03*
D10*
X3680000Y42400000D03*
%TA.AperFunction,Conductor*%
G36*
X13990557Y44837990D02*
G01*
X13991042Y44837879D01*
X13991043Y44837879D01*
X13999714Y44835885D01*
X14008392Y44837849D01*
X14017285Y44837833D01*
X14017285Y44837710D01*
X14025306Y44838341D01*
X14056529Y44836295D01*
X14235008Y44824597D01*
X14245241Y44823250D01*
X14471156Y44778313D01*
X14481128Y44775640D01*
X14699240Y44701601D01*
X14708770Y44697654D01*
X14866768Y44619738D01*
X14915358Y44595776D01*
X14924307Y44590609D01*
X15115818Y44462645D01*
X15124016Y44456354D01*
X15297183Y44304490D01*
X15304490Y44297183D01*
X15456354Y44124016D01*
X15462645Y44115818D01*
X15590609Y43924307D01*
X15595776Y43915358D01*
X15697654Y43708770D01*
X15701601Y43699240D01*
X15763169Y43517867D01*
X15775639Y43481133D01*
X15778313Y43471156D01*
X15822669Y43248165D01*
X15823249Y43245248D01*
X15824597Y43235010D01*
X15838315Y43025718D01*
X15837682Y43017852D01*
X15837895Y43017852D01*
X15837879Y43008959D01*
X15835885Y43000286D01*
X15837849Y42991608D01*
X15838052Y42990710D01*
X15840000Y42973274D01*
X15840000Y2027148D01*
X15837990Y2009443D01*
X15837955Y2009290D01*
X15835885Y2000286D01*
X15837849Y1991608D01*
X15837833Y1982715D01*
X15837710Y1982715D01*
X15838341Y1974694D01*
X15824598Y1764998D01*
X15823250Y1754759D01*
X15778314Y1528849D01*
X15775640Y1518872D01*
X15701601Y1300760D01*
X15697654Y1291230D01*
X15668767Y1232653D01*
X15595776Y1084642D01*
X15590609Y1075693D01*
X15462645Y884182D01*
X15456354Y875984D01*
X15304490Y702817D01*
X15297183Y695510D01*
X15124016Y543646D01*
X15115818Y537355D01*
X14924307Y409391D01*
X14915358Y404224D01*
X14708770Y302346D01*
X14699240Y298399D01*
X14481128Y224360D01*
X14471156Y221687D01*
X14245241Y176750D01*
X14235010Y175403D01*
X14025716Y161685D01*
X14017852Y162318D01*
X14017852Y162105D01*
X14008959Y162121D01*
X14000286Y164115D01*
X13990984Y162010D01*
X13990710Y161948D01*
X13973274Y160000D01*
X2027148Y160000D01*
X2009443Y162010D01*
X2008958Y162121D01*
X2008957Y162121D01*
X2000286Y164115D01*
X1991608Y162151D01*
X1982715Y162167D01*
X1982715Y162290D01*
X1974694Y161659D01*
X1943471Y163705D01*
X1764992Y175403D01*
X1754759Y176750D01*
X1528844Y221687D01*
X1518872Y224360D01*
X1300760Y298399D01*
X1291230Y302346D01*
X1084642Y404224D01*
X1075693Y409391D01*
X884182Y537355D01*
X875984Y543646D01*
X702817Y695510D01*
X695510Y702817D01*
X543646Y875984D01*
X537355Y884182D01*
X409391Y1075693D01*
X404224Y1084642D01*
X331233Y1232653D01*
X302346Y1291230D01*
X298399Y1300760D01*
X224360Y1518872D01*
X221686Y1528849D01*
X176750Y1754759D01*
X175402Y1764997D01*
X161685Y1974282D01*
X162318Y1982148D01*
X162105Y1982148D01*
X162121Y1991041D01*
X164115Y1999714D01*
X161948Y2009291D01*
X160000Y2026726D01*
X160000Y37632326D01*
X3020000Y37632326D01*
X3020286Y37627584D01*
X3033772Y37516136D01*
X3036026Y37506960D01*
X3089126Y37366435D01*
X3093508Y37358053D01*
X3178591Y37234257D01*
X3184851Y37227157D01*
X3297009Y37127228D01*
X3304768Y37121835D01*
X3437537Y37051537D01*
X3446354Y37048153D01*
X3590351Y37011984D01*
X3596761Y37014280D01*
X3600000Y37019824D01*
X3600000Y37024349D01*
X3760000Y37024349D01*
X3763884Y37013678D01*
X3766325Y37012268D01*
X3767904Y37012317D01*
X3907119Y37045740D01*
X3915976Y37049034D01*
X4049465Y37117932D01*
X4057288Y37123249D01*
X4170489Y37222000D01*
X4176818Y37229030D01*
X4263195Y37351931D01*
X4267661Y37360260D01*
X4322229Y37500220D01*
X4324582Y37509385D01*
X4339662Y37623926D01*
X4340000Y37629085D01*
X4340000Y37632326D01*
X11660000Y37632326D01*
X11660286Y37627584D01*
X11673772Y37516136D01*
X11676026Y37506960D01*
X11729126Y37366435D01*
X11733508Y37358053D01*
X11818591Y37234257D01*
X11824851Y37227157D01*
X11937009Y37127228D01*
X11944768Y37121835D01*
X12077537Y37051537D01*
X12086354Y37048153D01*
X12230351Y37011984D01*
X12236761Y37014280D01*
X12240000Y37019824D01*
X12240000Y37024349D01*
X12400000Y37024349D01*
X12403884Y37013678D01*
X12406325Y37012268D01*
X12407904Y37012317D01*
X12547119Y37045740D01*
X12555976Y37049034D01*
X12689465Y37117932D01*
X12697288Y37123249D01*
X12810489Y37222000D01*
X12816818Y37229030D01*
X12903195Y37351931D01*
X12907661Y37360260D01*
X12962229Y37500220D01*
X12964582Y37509385D01*
X12979662Y37623926D01*
X12980000Y37629085D01*
X12980000Y38126070D01*
X12976116Y38136741D01*
X12970472Y38140000D01*
X12413930Y38140000D01*
X12403259Y38136116D01*
X12400000Y38130472D01*
X12400000Y37024349D01*
X12240000Y37024349D01*
X12240000Y38126070D01*
X12236116Y38136741D01*
X12230472Y38140000D01*
X11673930Y38140000D01*
X11663259Y38136116D01*
X11660000Y38130472D01*
X11660000Y37632326D01*
X4340000Y37632326D01*
X4340000Y38126070D01*
X4336116Y38136741D01*
X4330472Y38140000D01*
X3773930Y38140000D01*
X3763259Y38136116D01*
X3760000Y38130472D01*
X3760000Y37024349D01*
X3600000Y37024349D01*
X3600000Y38126070D01*
X3596116Y38136741D01*
X3590472Y38140000D01*
X3033930Y38140000D01*
X3023259Y38136116D01*
X3020000Y38130472D01*
X3020000Y37632326D01*
X160000Y37632326D01*
X160000Y38313930D01*
X3020000Y38313930D01*
X3023884Y38303259D01*
X3029528Y38300000D01*
X3586070Y38300000D01*
X3596741Y38303884D01*
X3600000Y38309528D01*
X3600000Y38313930D01*
X3760000Y38313930D01*
X3763884Y38303259D01*
X3769528Y38300000D01*
X4326070Y38300000D01*
X4336741Y38303884D01*
X4340000Y38309528D01*
X4340000Y38755992D01*
X4619544Y38755992D01*
X4637576Y38618097D01*
X4693585Y38490805D01*
X4783070Y38384349D01*
X4800698Y38372615D01*
X4894155Y38310404D01*
X4894158Y38310402D01*
X4898837Y38307288D01*
X5031579Y38265817D01*
X5101103Y38264542D01*
X5165000Y38263371D01*
X5165001Y38263371D01*
X5170626Y38263268D01*
X5176053Y38264748D01*
X5176056Y38264748D01*
X5237712Y38281558D01*
X5304798Y38299848D01*
X5310354Y38303259D01*
X5418518Y38369672D01*
X5423311Y38372615D01*
X5427084Y38376783D01*
X5427086Y38376785D01*
X5512860Y38471547D01*
X5512861Y38471548D01*
X5516637Y38475720D01*
X5577274Y38600874D01*
X5600347Y38738016D01*
X5600493Y38750000D01*
X5599635Y38755992D01*
X10399544Y38755992D01*
X10417576Y38618097D01*
X10473585Y38490805D01*
X10563070Y38384349D01*
X10580698Y38372615D01*
X10674155Y38310404D01*
X10674158Y38310402D01*
X10678837Y38307288D01*
X10811579Y38265817D01*
X10881103Y38264542D01*
X10945000Y38263371D01*
X10945001Y38263371D01*
X10950626Y38263268D01*
X10956053Y38264748D01*
X10956056Y38264748D01*
X11017712Y38281558D01*
X11084798Y38299848D01*
X11090354Y38303259D01*
X11107733Y38313930D01*
X11660000Y38313930D01*
X11663884Y38303259D01*
X11669528Y38300000D01*
X12226070Y38300000D01*
X12236741Y38303884D01*
X12240000Y38309528D01*
X12240000Y38313930D01*
X12400000Y38313930D01*
X12403884Y38303259D01*
X12409528Y38300000D01*
X12966070Y38300000D01*
X12976741Y38303884D01*
X12980000Y38309528D01*
X12980000Y38807674D01*
X12979714Y38812416D01*
X12966228Y38923864D01*
X12963974Y38933040D01*
X12910874Y39073565D01*
X12906492Y39081947D01*
X12821409Y39205743D01*
X12815149Y39212843D01*
X12702991Y39312772D01*
X12695232Y39318165D01*
X12562463Y39388463D01*
X12553646Y39391847D01*
X12409649Y39428016D01*
X12403239Y39425720D01*
X12400000Y39420176D01*
X12400000Y38313930D01*
X12240000Y38313930D01*
X12240000Y39415651D01*
X12236116Y39426322D01*
X12233675Y39427732D01*
X12232096Y39427683D01*
X12092881Y39394260D01*
X12084024Y39390966D01*
X11950535Y39322068D01*
X11942712Y39316751D01*
X11829511Y39218000D01*
X11823182Y39210970D01*
X11736805Y39088069D01*
X11732339Y39079740D01*
X11677771Y38939780D01*
X11675418Y38930615D01*
X11660338Y38816074D01*
X11660000Y38810915D01*
X11660000Y38313930D01*
X11107733Y38313930D01*
X11198518Y38369672D01*
X11203311Y38372615D01*
X11207084Y38376783D01*
X11207086Y38376785D01*
X11292860Y38471547D01*
X11292861Y38471548D01*
X11296637Y38475720D01*
X11357274Y38600874D01*
X11380347Y38738016D01*
X11380493Y38750000D01*
X11371769Y38810915D01*
X11361576Y38882095D01*
X11361575Y38882097D01*
X11360778Y38887665D01*
X11303217Y39014263D01*
X11239622Y39088069D01*
X11216111Y39115356D01*
X11216108Y39115358D01*
X11212438Y39119618D01*
X11207718Y39122677D01*
X11207716Y39122679D01*
X11100462Y39192196D01*
X11100463Y39192196D01*
X11095738Y39195258D01*
X11087443Y39197739D01*
X10967889Y39233493D01*
X10962499Y39235105D01*
X10893483Y39235527D01*
X10829057Y39235921D01*
X10829054Y39235921D01*
X10823432Y39235955D01*
X10689717Y39197739D01*
X10572102Y39123529D01*
X10480042Y39019292D01*
X10420939Y38893406D01*
X10399544Y38755992D01*
X5599635Y38755992D01*
X5591769Y38810915D01*
X5581576Y38882095D01*
X5581575Y38882097D01*
X5580778Y38887665D01*
X5523217Y39014263D01*
X5459622Y39088069D01*
X5436111Y39115356D01*
X5436108Y39115358D01*
X5432438Y39119618D01*
X5427718Y39122677D01*
X5427716Y39122679D01*
X5320462Y39192196D01*
X5320463Y39192196D01*
X5315738Y39195258D01*
X5307443Y39197739D01*
X5187889Y39233493D01*
X5182499Y39235105D01*
X5113483Y39235527D01*
X5049057Y39235921D01*
X5049054Y39235921D01*
X5043432Y39235955D01*
X4909717Y39197739D01*
X4792102Y39123529D01*
X4700042Y39019292D01*
X4640939Y38893406D01*
X4619544Y38755992D01*
X4340000Y38755992D01*
X4340000Y38807674D01*
X4339714Y38812416D01*
X4326228Y38923864D01*
X4323974Y38933040D01*
X4270874Y39073565D01*
X4266492Y39081947D01*
X4181409Y39205743D01*
X4175149Y39212843D01*
X4062991Y39312772D01*
X4055232Y39318165D01*
X3922463Y39388463D01*
X3913646Y39391847D01*
X3769649Y39428016D01*
X3763239Y39425720D01*
X3760000Y39420176D01*
X3760000Y38313930D01*
X3600000Y38313930D01*
X3600000Y39415651D01*
X3596116Y39426322D01*
X3593675Y39427732D01*
X3592096Y39427683D01*
X3452881Y39394260D01*
X3444024Y39390966D01*
X3310535Y39322068D01*
X3302712Y39316751D01*
X3189511Y39218000D01*
X3183182Y39210970D01*
X3096805Y39088069D01*
X3092339Y39079740D01*
X3037771Y38939780D01*
X3035418Y38930615D01*
X3020338Y38816074D01*
X3020000Y38810915D01*
X3020000Y38313930D01*
X160000Y38313930D01*
X160000Y42062326D01*
X3020000Y42062326D01*
X3020286Y42057584D01*
X3033772Y41946136D01*
X3036026Y41936960D01*
X3089126Y41796435D01*
X3093508Y41788053D01*
X3178591Y41664257D01*
X3184851Y41657157D01*
X3297009Y41557228D01*
X3304768Y41551835D01*
X3437537Y41481537D01*
X3446354Y41478153D01*
X3590351Y41441984D01*
X3596761Y41444280D01*
X3600000Y41449824D01*
X3600000Y41454349D01*
X3760000Y41454349D01*
X3763884Y41443678D01*
X3766325Y41442268D01*
X3767904Y41442317D01*
X3907119Y41475740D01*
X3915976Y41479034D01*
X4049465Y41547932D01*
X4057288Y41553249D01*
X4170489Y41652000D01*
X4176818Y41659030D01*
X4263195Y41781931D01*
X4267661Y41790260D01*
X4322229Y41930220D01*
X4324582Y41939385D01*
X4339662Y42053926D01*
X4340000Y42059085D01*
X4340000Y42062326D01*
X11660000Y42062326D01*
X11660286Y42057584D01*
X11673772Y41946136D01*
X11676026Y41936960D01*
X11729126Y41796435D01*
X11733508Y41788053D01*
X11818591Y41664257D01*
X11824851Y41657157D01*
X11937009Y41557228D01*
X11944768Y41551835D01*
X12077537Y41481537D01*
X12086354Y41478153D01*
X12230351Y41441984D01*
X12236761Y41444280D01*
X12240000Y41449824D01*
X12240000Y41454349D01*
X12400000Y41454349D01*
X12403884Y41443678D01*
X12406325Y41442268D01*
X12407904Y41442317D01*
X12547119Y41475740D01*
X12555976Y41479034D01*
X12689465Y41547932D01*
X12697288Y41553249D01*
X12810489Y41652000D01*
X12816818Y41659030D01*
X12903195Y41781931D01*
X12907661Y41790260D01*
X12962229Y41930220D01*
X12964582Y41939385D01*
X12979662Y42053926D01*
X12980000Y42059085D01*
X12980000Y42306070D01*
X12976116Y42316741D01*
X12970472Y42320000D01*
X12413930Y42320000D01*
X12403259Y42316116D01*
X12400000Y42310472D01*
X12400000Y41454349D01*
X12240000Y41454349D01*
X12240000Y42306070D01*
X12236116Y42316741D01*
X12230472Y42320000D01*
X11673930Y42320000D01*
X11663259Y42316116D01*
X11660000Y42310472D01*
X11660000Y42062326D01*
X4340000Y42062326D01*
X4340000Y42306070D01*
X4336116Y42316741D01*
X4330472Y42320000D01*
X3773930Y42320000D01*
X3763259Y42316116D01*
X3760000Y42310472D01*
X3760000Y41454349D01*
X3600000Y41454349D01*
X3600000Y42306070D01*
X3596116Y42316741D01*
X3590472Y42320000D01*
X3033930Y42320000D01*
X3023259Y42316116D01*
X3020000Y42310472D01*
X3020000Y42062326D01*
X160000Y42062326D01*
X160000Y42493930D01*
X3020000Y42493930D01*
X3023884Y42483259D01*
X3029528Y42480000D01*
X3586070Y42480000D01*
X3596741Y42483884D01*
X3600000Y42489528D01*
X3600000Y42493930D01*
X3760000Y42493930D01*
X3763884Y42483259D01*
X3769528Y42480000D01*
X4326070Y42480000D01*
X4336741Y42483884D01*
X4340000Y42489528D01*
X4340000Y42493930D01*
X11660000Y42493930D01*
X11663884Y42483259D01*
X11669528Y42480000D01*
X12226070Y42480000D01*
X12236741Y42483884D01*
X12240000Y42489528D01*
X12240000Y42493930D01*
X12400000Y42493930D01*
X12403884Y42483259D01*
X12409528Y42480000D01*
X12966070Y42480000D01*
X12976741Y42483884D01*
X12980000Y42489528D01*
X12980000Y42737674D01*
X12979714Y42742416D01*
X12966228Y42853864D01*
X12963974Y42863040D01*
X12910874Y43003565D01*
X12906492Y43011947D01*
X12821409Y43135743D01*
X12815149Y43142843D01*
X12702991Y43242772D01*
X12695232Y43248165D01*
X12562463Y43318463D01*
X12553646Y43321847D01*
X12409649Y43358016D01*
X12403239Y43355720D01*
X12400000Y43350176D01*
X12400000Y42493930D01*
X12240000Y42493930D01*
X12240000Y43345651D01*
X12236116Y43356322D01*
X12233675Y43357732D01*
X12232096Y43357683D01*
X12092881Y43324260D01*
X12084024Y43320966D01*
X11950535Y43252068D01*
X11942712Y43246751D01*
X11829511Y43148000D01*
X11823182Y43140970D01*
X11736805Y43018069D01*
X11732339Y43009740D01*
X11677771Y42869780D01*
X11675418Y42860615D01*
X11660338Y42746074D01*
X11660000Y42740915D01*
X11660000Y42493930D01*
X4340000Y42493930D01*
X4340000Y42737674D01*
X4339714Y42742416D01*
X4326228Y42853864D01*
X4323974Y42863040D01*
X4270874Y43003565D01*
X4266492Y43011947D01*
X4181409Y43135743D01*
X4175149Y43142843D01*
X4062991Y43242772D01*
X4055232Y43248165D01*
X3922463Y43318463D01*
X3913646Y43321847D01*
X3769649Y43358016D01*
X3763239Y43355720D01*
X3760000Y43350176D01*
X3760000Y42493930D01*
X3600000Y42493930D01*
X3600000Y43345651D01*
X3596116Y43356322D01*
X3593675Y43357732D01*
X3592096Y43357683D01*
X3452881Y43324260D01*
X3444024Y43320966D01*
X3310535Y43252068D01*
X3302712Y43246751D01*
X3189511Y43148000D01*
X3183182Y43140970D01*
X3096805Y43018069D01*
X3092339Y43009740D01*
X3037771Y42869780D01*
X3035418Y42860615D01*
X3020338Y42746074D01*
X3020000Y42740915D01*
X3020000Y42493930D01*
X160000Y42493930D01*
X160000Y42972641D01*
X162040Y42990479D01*
X163106Y42995080D01*
X164114Y42999427D01*
X164115Y43000000D01*
X163121Y43004355D01*
X162625Y43008799D01*
X162999Y43008841D01*
X161672Y43025514D01*
X165545Y43084603D01*
X175403Y43235010D01*
X176751Y43245248D01*
X177332Y43248165D01*
X221687Y43471156D01*
X224361Y43481133D01*
X236831Y43517867D01*
X298399Y43699240D01*
X302346Y43708770D01*
X404224Y43915358D01*
X409391Y43924307D01*
X537355Y44115818D01*
X543646Y44124016D01*
X695510Y44297183D01*
X702817Y44304490D01*
X875984Y44456354D01*
X884182Y44462645D01*
X1075693Y44590609D01*
X1084642Y44595776D01*
X1133232Y44619738D01*
X1291230Y44697654D01*
X1300760Y44701601D01*
X1518872Y44775640D01*
X1528844Y44778313D01*
X1754759Y44823250D01*
X1764990Y44824597D01*
X1974284Y44838315D01*
X1982148Y44837682D01*
X1982148Y44837895D01*
X1991041Y44837879D01*
X1999714Y44835885D01*
X2009291Y44838052D01*
X2026726Y44840000D01*
X13972852Y44840000D01*
X13990557Y44837990D01*
G37*
%TD.AperFunction*%
M02*
