%TF.GenerationSoftware,KiCad,Pcbnew,(5.99.0-13283-gf5fc9fa11f)*%
%TF.CreationDate,2021-11-15T23:55:46+03:00*%
%TF.ProjectId,LIR2032_Battery_Charger,4c495232-3033-4325-9f42-617474657279,rev?*%
%TF.SameCoordinates,PX8f0d180PY5f5e100*%
%TF.FileFunction,Copper,L1,Top*%
%TF.FilePolarity,Positive*%
%FSLAX46Y46*%
G04 Gerber Fmt 4.6, Leading zero omitted, Abs format (unit mm)*
G04 Created by KiCad (PCBNEW (5.99.0-13283-gf5fc9fa11f)) date 2021-11-15 23:55:46*
%MOMM*%
%LPD*%
G01*
G04 APERTURE LIST*
G04 Aperture macros list*
%AMRoundRect*
0 Rectangle with rounded corners*
0 $1 Rounding radius*
0 $2 $3 $4 $5 $6 $7 $8 $9 X,Y pos of 4 corners*
0 Add a 4 corners polygon primitive as box body*
4,1,4,$2,$3,$4,$5,$6,$7,$8,$9,$2,$3,0*
0 Add four circle primitives for the rounded corners*
1,1,$1+$1,$2,$3*
1,1,$1+$1,$4,$5*
1,1,$1+$1,$6,$7*
1,1,$1+$1,$8,$9*
0 Add four rect primitives between the rounded corners*
20,1,$1+$1,$2,$3,$4,$5,0*
20,1,$1+$1,$4,$5,$6,$7,0*
20,1,$1+$1,$6,$7,$8,$9,0*
20,1,$1+$1,$8,$9,$2,$3,0*%
G04 Aperture macros list end*
%TA.AperFunction,SMDPad,CuDef*%
%ADD10RoundRect,0.125000X0.175000X-0.125000X0.175000X0.125000X-0.175000X0.125000X-0.175000X-0.125000X0*%
%TD*%
%TA.AperFunction,SMDPad,CuDef*%
%ADD11RoundRect,0.075000X0.075000X-0.150000X0.075000X0.150000X-0.075000X0.150000X-0.075000X-0.150000X0*%
%TD*%
%TA.AperFunction,SMDPad,CuDef*%
%ADD12RoundRect,0.135000X-0.135000X-0.185000X0.135000X-0.185000X0.135000X0.185000X-0.135000X0.185000X0*%
%TD*%
%TA.AperFunction,SMDPad,CuDef*%
%ADD13RoundRect,0.135000X-0.185000X0.135000X-0.185000X-0.135000X0.185000X-0.135000X0.185000X0.135000X0*%
%TD*%
%TA.AperFunction,SMDPad,CuDef*%
%ADD14RoundRect,0.135000X0.185000X-0.135000X0.185000X0.135000X-0.185000X0.135000X-0.185000X-0.135000X0*%
%TD*%
%TA.AperFunction,SMDPad,CuDef*%
%ADD15RoundRect,0.150000X0.150000X0.475000X-0.150000X0.475000X-0.150000X-0.475000X0.150000X-0.475000X0*%
%TD*%
%TA.AperFunction,SMDPad,CuDef*%
%ADD16RoundRect,0.075000X0.075000X0.550000X-0.075000X0.550000X-0.075000X-0.550000X0.075000X-0.550000X0*%
%TD*%
%TA.AperFunction,ComponentPad*%
%ADD17O,1.000000X1.600000*%
%TD*%
%TA.AperFunction,ComponentPad*%
%ADD18O,1.000000X2.100000*%
%TD*%
%TA.AperFunction,SMDPad,CuDef*%
%ADD19RoundRect,0.150000X-0.150000X0.150000X-0.150000X-0.150000X0.150000X-0.150000X0.150000X0.150000X0*%
%TD*%
%TA.AperFunction,SMDPad,CuDef*%
%ADD20RoundRect,0.150000X-0.150000X-0.150000X0.150000X-0.150000X0.150000X0.150000X-0.150000X0.150000X0*%
%TD*%
%TA.AperFunction,SMDPad,CuDef*%
%ADD21RoundRect,0.150000X0.150000X0.150000X-0.150000X0.150000X-0.150000X-0.150000X0.150000X-0.150000X0*%
%TD*%
%TA.AperFunction,SMDPad,CuDef*%
%ADD22RoundRect,0.140000X-0.140000X-0.160000X0.140000X-0.160000X0.140000X0.160000X-0.140000X0.160000X0*%
%TD*%
%TA.AperFunction,SMDPad,CuDef*%
%ADD23RoundRect,0.140000X-0.160000X0.140000X-0.160000X-0.140000X0.160000X-0.140000X0.160000X0.140000X0*%
%TD*%
%TA.AperFunction,SMDPad,CuDef*%
%ADD24RoundRect,0.290000X1.660000X-1.160000X1.660000X1.160000X-1.660000X1.160000X-1.660000X-1.160000X0*%
%TD*%
%TA.AperFunction,Conductor*%
%ADD25C,0.200000*%
%TD*%
G04 APERTURE END LIST*
D10*
X1000000Y37650000D03*
X1000000Y38350000D03*
D11*
X2250000Y30300000D03*
X2750000Y30300000D03*
X3250000Y30300000D03*
X3250000Y31700000D03*
X2250000Y31700000D03*
D12*
X2240000Y32750000D03*
X3260000Y32750000D03*
D13*
X11500000Y32760000D03*
X11500000Y31740000D03*
X4500000Y32760000D03*
X4500000Y31740000D03*
D14*
X2000000Y40000000D03*
X2000000Y41020000D03*
X14000000Y39990000D03*
X14000000Y41010000D03*
D15*
X11250000Y37400000D03*
X10450000Y37400000D03*
D16*
X9250000Y37400000D03*
X8250000Y37400000D03*
X7750000Y37400000D03*
X6750000Y37400000D03*
D15*
X4750000Y37400000D03*
X5550000Y37400000D03*
D16*
X6250000Y37400000D03*
X7250000Y37400000D03*
X8750000Y37400000D03*
X9750000Y37400000D03*
D17*
X12320000Y42400000D03*
D18*
X3680000Y38220000D03*
X12320000Y38220000D03*
D17*
X3680000Y42400000D03*
D19*
X2000000Y38485000D03*
X2000000Y37515000D03*
D20*
X13265000Y35250000D03*
X14235000Y35250000D03*
D21*
X2735000Y35250000D03*
X1765000Y35250000D03*
D22*
X2270000Y29250000D03*
X3230000Y29250000D03*
D23*
X1000000Y31480000D03*
X1000000Y30520000D03*
D24*
X8000000Y2100000D03*
X8000000Y31400000D03*
D25*
X3250000Y30300000D02*
X4625000Y30300000D01*
X4625000Y30300000D02*
X5307199Y30982199D01*
X5307199Y30982199D02*
X5307199Y31382277D01*
X5307199Y31382277D02*
X5790480Y31865558D01*
X5790480Y31865558D02*
X5790480Y32787736D01*
X5790480Y32787736D02*
X6112264Y33109520D01*
X6112264Y33109520D02*
X9887736Y33109520D01*
X9887736Y33109520D02*
X10209520Y32787736D01*
X10209520Y32787736D02*
X10209520Y32290480D01*
X10209520Y32290480D02*
X10760000Y31740000D01*
X10760000Y31740000D02*
X11500000Y31740000D01*
X2835480Y29815480D02*
X3465642Y29815480D01*
X3590642Y29940480D02*
X4773918Y29940480D01*
X2270000Y29250000D02*
X2835480Y29815480D01*
X4773918Y29940480D02*
X5666719Y30833281D01*
X3465642Y29815480D02*
X3590642Y29940480D01*
X5666719Y30833281D02*
X5666719Y31233359D01*
X5666719Y31233359D02*
X5833360Y31400000D01*
X5833360Y31400000D02*
X8000000Y31400000D01*
X2000000Y37515000D02*
X2000000Y36800000D01*
X2000000Y36800000D02*
X2300000Y36500000D01*
X2300000Y36500000D02*
X10300000Y36500000D01*
X10300000Y36500000D02*
X10450000Y36650000D01*
X10450000Y36650000D02*
X10450000Y37400000D01*
X1765000Y36135000D02*
X1400000Y36500000D01*
X1400000Y36500000D02*
X1400000Y37315848D01*
X1400000Y37315848D02*
X1065848Y37650000D01*
X1065848Y37650000D02*
X1000000Y37650000D01*
X1765000Y35250000D02*
X1765000Y36135000D01*
X1765000Y36135000D02*
X13350000Y36135000D01*
X13350000Y36135000D02*
X14235000Y35250000D01*
X11500000Y32760000D02*
X12060000Y32760000D01*
X12060000Y32760000D02*
X13265000Y33965000D01*
X13265000Y33965000D02*
X13265000Y35250000D01*
X5550000Y36500000D02*
X5550000Y37400000D01*
X4500000Y32760000D02*
X4500000Y33325000D01*
X4500000Y33325000D02*
X4075000Y33750000D01*
X3075000Y33750000D02*
X2735000Y34090000D01*
X4075000Y33750000D02*
X3075000Y33750000D01*
X2735000Y34090000D02*
X2735000Y35250000D01*
X3250000Y31700000D02*
X3250000Y32740000D01*
X3250000Y32740000D02*
X3260000Y32750000D01*
X2250000Y30300000D02*
X2250000Y29270000D01*
X2250000Y29270000D02*
X2270000Y29250000D01*
X1000000Y31480000D02*
X1455000Y31480000D01*
X1455000Y31480000D02*
X1675000Y31700000D01*
X1675000Y31700000D02*
X2250000Y31700000D01*
X1765000Y35250000D02*
X1765000Y33290000D01*
X1765000Y33290000D02*
X1000000Y32525000D01*
X1000000Y32525000D02*
X1000000Y31480000D01*
X1000000Y38350000D02*
X1425000Y38350000D01*
X1425000Y38350000D02*
X1560000Y38485000D01*
X1560000Y38485000D02*
X2000000Y38485000D01*
X9250000Y37400000D02*
X9250000Y39000000D01*
X9250000Y39000000D02*
X10240000Y39990000D01*
X10240000Y39990000D02*
X14000000Y39990000D01*
X6250000Y37400000D02*
X6250000Y39000000D01*
X6250000Y39000000D02*
X5250000Y40000000D01*
X5250000Y40000000D02*
X2000000Y40000000D01*
%TA.AperFunction,Conductor*%
G36*
X13990557Y44837990D02*
G01*
X13991042Y44837879D01*
X13991043Y44837879D01*
X13999714Y44835885D01*
X14008392Y44837849D01*
X14017285Y44837833D01*
X14017285Y44837710D01*
X14025306Y44838341D01*
X14056529Y44836295D01*
X14235008Y44824597D01*
X14245241Y44823250D01*
X14471156Y44778313D01*
X14481128Y44775640D01*
X14699240Y44701601D01*
X14708770Y44697654D01*
X14866768Y44619738D01*
X14915358Y44595776D01*
X14924307Y44590609D01*
X15115818Y44462645D01*
X15124016Y44456354D01*
X15297183Y44304490D01*
X15304490Y44297183D01*
X15456354Y44124016D01*
X15462645Y44115818D01*
X15590609Y43924307D01*
X15595776Y43915358D01*
X15697654Y43708770D01*
X15701601Y43699240D01*
X15763169Y43517867D01*
X15775639Y43481133D01*
X15778313Y43471156D01*
X15822669Y43248165D01*
X15823249Y43245248D01*
X15824597Y43235010D01*
X15838315Y43025718D01*
X15837682Y43017852D01*
X15837895Y43017852D01*
X15837879Y43008959D01*
X15835885Y43000286D01*
X15837849Y42991608D01*
X15838052Y42990710D01*
X15840000Y42973274D01*
X15840000Y2027148D01*
X15837990Y2009443D01*
X15837955Y2009290D01*
X15835885Y2000286D01*
X15837849Y1991608D01*
X15837833Y1982715D01*
X15837710Y1982715D01*
X15838341Y1974694D01*
X15824598Y1764998D01*
X15823250Y1754759D01*
X15778314Y1528849D01*
X15775640Y1518872D01*
X15701601Y1300760D01*
X15697654Y1291230D01*
X15668767Y1232653D01*
X15595776Y1084642D01*
X15590609Y1075693D01*
X15462645Y884182D01*
X15456354Y875984D01*
X15304490Y702817D01*
X15297183Y695510D01*
X15124016Y543646D01*
X15115818Y537355D01*
X14924307Y409391D01*
X14915358Y404224D01*
X14708770Y302346D01*
X14699240Y298399D01*
X14481128Y224360D01*
X14471156Y221687D01*
X14245241Y176750D01*
X14235010Y175403D01*
X14025716Y161685D01*
X14017852Y162318D01*
X14017852Y162105D01*
X14008959Y162121D01*
X14000286Y164115D01*
X13990984Y162010D01*
X13990710Y161948D01*
X13973274Y160000D01*
X2027148Y160000D01*
X2009443Y162010D01*
X2008958Y162121D01*
X2008957Y162121D01*
X2000286Y164115D01*
X1991608Y162151D01*
X1982715Y162167D01*
X1982715Y162290D01*
X1974694Y161659D01*
X1943471Y163705D01*
X1764992Y175403D01*
X1754759Y176750D01*
X1528844Y221687D01*
X1518872Y224360D01*
X1300760Y298399D01*
X1291230Y302346D01*
X1084642Y404224D01*
X1075693Y409391D01*
X884182Y537355D01*
X875984Y543646D01*
X702817Y695510D01*
X695510Y702817D01*
X543646Y875984D01*
X537355Y884182D01*
X534738Y888099D01*
X5890001Y888099D01*
X5890176Y884374D01*
X5892525Y859518D01*
X5894573Y850184D01*
X5935856Y732626D01*
X5941324Y722300D01*
X6014701Y622956D01*
X6022956Y614701D01*
X6122300Y541324D01*
X6132626Y535856D01*
X6250185Y494573D01*
X6259520Y492525D01*
X6284372Y490175D01*
X6288090Y490000D01*
X7906070Y490000D01*
X7916741Y493884D01*
X7920000Y499528D01*
X7920000Y503931D01*
X8080000Y503931D01*
X8083884Y493260D01*
X8089528Y490001D01*
X9711901Y490001D01*
X9715626Y490176D01*
X9740482Y492525D01*
X9749816Y494573D01*
X9867374Y535856D01*
X9877700Y541324D01*
X9977044Y614701D01*
X9985299Y622956D01*
X10058676Y722300D01*
X10064144Y732626D01*
X10105427Y850185D01*
X10107475Y859520D01*
X10109825Y884372D01*
X10110000Y888090D01*
X10110000Y2006070D01*
X10106116Y2016741D01*
X10100472Y2020000D01*
X8093930Y2020000D01*
X8083259Y2016116D01*
X8080000Y2010472D01*
X8080000Y503931D01*
X7920000Y503931D01*
X7920000Y2006070D01*
X7916116Y2016741D01*
X7910472Y2020000D01*
X5903931Y2020000D01*
X5893260Y2016116D01*
X5890001Y2010472D01*
X5890001Y888099D01*
X534738Y888099D01*
X409391Y1075693D01*
X404224Y1084642D01*
X331233Y1232653D01*
X302346Y1291230D01*
X298399Y1300760D01*
X224360Y1518872D01*
X221686Y1528849D01*
X176750Y1754759D01*
X175402Y1764997D01*
X161685Y1974282D01*
X162318Y1982148D01*
X162105Y1982148D01*
X162121Y1991041D01*
X164115Y1999714D01*
X161948Y2009291D01*
X160000Y2026726D01*
X160000Y2193930D01*
X5890000Y2193930D01*
X5893884Y2183259D01*
X5899528Y2180000D01*
X7906070Y2180000D01*
X7916741Y2183884D01*
X7920000Y2189528D01*
X7920000Y2193930D01*
X8080000Y2193930D01*
X8083884Y2183259D01*
X8089528Y2180000D01*
X10096069Y2180000D01*
X10106740Y2183884D01*
X10109999Y2189528D01*
X10109999Y3311901D01*
X10109824Y3315626D01*
X10107475Y3340482D01*
X10105427Y3349816D01*
X10064144Y3467374D01*
X10058676Y3477700D01*
X9985299Y3577044D01*
X9977044Y3585299D01*
X9877700Y3658676D01*
X9867374Y3664144D01*
X9749815Y3705427D01*
X9740480Y3707475D01*
X9715628Y3709825D01*
X9711910Y3710000D01*
X8093930Y3710000D01*
X8083259Y3706116D01*
X8080000Y3700472D01*
X8080000Y2193930D01*
X7920000Y2193930D01*
X7920000Y3696069D01*
X7916116Y3706740D01*
X7910472Y3709999D01*
X6288099Y3709999D01*
X6284374Y3709824D01*
X6259518Y3707475D01*
X6250184Y3705427D01*
X6132626Y3664144D01*
X6122300Y3658676D01*
X6022956Y3585299D01*
X6014701Y3577044D01*
X5941324Y3477700D01*
X5935856Y3467374D01*
X5894573Y3349815D01*
X5892525Y3340480D01*
X5890175Y3315628D01*
X5890000Y3311910D01*
X5890000Y2193930D01*
X160000Y2193930D01*
X160000Y29045354D01*
X1829500Y29045354D01*
X1832618Y29019154D01*
X1835024Y29013738D01*
X1875099Y28923514D01*
X1875101Y28923511D01*
X1878061Y28916847D01*
X1957287Y28837759D01*
X2059673Y28792494D01*
X2065567Y28791807D01*
X2065570Y28791806D01*
X2083087Y28789764D01*
X2083092Y28789764D01*
X2085354Y28789500D01*
X2454646Y28789500D01*
X2480846Y28792618D01*
X2515666Y28808084D01*
X2576486Y28835099D01*
X2576489Y28835101D01*
X2583153Y28838061D01*
X2662241Y28917287D01*
X2678035Y28953012D01*
X2715471Y28991983D01*
X2769200Y28997772D01*
X2814079Y28967672D01*
X2822487Y28953138D01*
X2835517Y28923803D01*
X2843642Y28911981D01*
X2912413Y28843330D01*
X2924244Y28835229D01*
X3014354Y28795392D01*
X3025695Y28792301D01*
X3043139Y28790267D01*
X3047725Y28790000D01*
X3136070Y28790000D01*
X3146741Y28793884D01*
X3150000Y28799528D01*
X3150000Y28803930D01*
X3310000Y28803930D01*
X3313884Y28793259D01*
X3319528Y28790000D01*
X3412231Y28790000D01*
X3416897Y28790276D01*
X3434843Y28792412D01*
X3446148Y28795519D01*
X3536198Y28835517D01*
X3548019Y28843642D01*
X3616670Y28912413D01*
X3624771Y28924244D01*
X3664608Y29014354D01*
X3667699Y29025695D01*
X3669733Y29043139D01*
X3670000Y29047725D01*
X3670000Y29156070D01*
X3666116Y29166741D01*
X3660472Y29170000D01*
X3323930Y29170000D01*
X3313259Y29166116D01*
X3310000Y29160472D01*
X3310000Y28803930D01*
X3150000Y28803930D01*
X3150000Y29251000D01*
X3168482Y29301780D01*
X3215282Y29328800D01*
X3229000Y29330000D01*
X3656070Y29330000D01*
X3666741Y29333884D01*
X3670000Y29339528D01*
X3670000Y29452231D01*
X3669724Y29456897D01*
X3667588Y29474843D01*
X3664481Y29486148D01*
X3638921Y29543692D01*
X3635198Y29597603D01*
X3652587Y29627092D01*
X3653452Y29627670D01*
X3663665Y29642955D01*
X3673490Y29654926D01*
X3675405Y29656841D01*
X3724381Y29679679D01*
X3731266Y29679980D01*
X4740483Y29679980D01*
X4755896Y29678462D01*
X4773918Y29674877D01*
X4781549Y29676395D01*
X4781791Y29676443D01*
X4799572Y29679980D01*
X4867930Y29693577D01*
X4867931Y29693578D01*
X4875560Y29695095D01*
X4961728Y29752670D01*
X4971941Y29767955D01*
X4981766Y29779926D01*
X5754639Y30552799D01*
X5803615Y30575637D01*
X5855813Y30561651D01*
X5886808Y30517385D01*
X5889500Y30496938D01*
X5889500Y30186166D01*
X5892481Y30154631D01*
X5913797Y30093930D01*
X5918596Y30080267D01*
X5937366Y30026816D01*
X6017850Y29917850D01*
X6126816Y29837366D01*
X6132383Y29835411D01*
X6132385Y29835410D01*
X6190840Y29814882D01*
X6254631Y29792481D01*
X6286166Y29789500D01*
X9713834Y29789500D01*
X9745369Y29792481D01*
X9809160Y29814882D01*
X9867615Y29835410D01*
X9867617Y29835411D01*
X9873184Y29837366D01*
X9982150Y29917850D01*
X10062634Y30026816D01*
X10081405Y30080267D01*
X10086203Y30093930D01*
X10107519Y30154631D01*
X10110500Y30186166D01*
X10110500Y31830376D01*
X10128982Y31881156D01*
X10175782Y31908176D01*
X10229000Y31898792D01*
X10245361Y31886237D01*
X10552152Y31579446D01*
X10561977Y31567475D01*
X10572190Y31552190D01*
X10647841Y31501642D01*
X10658358Y31494615D01*
X10665987Y31493098D01*
X10665988Y31493097D01*
X10752369Y31475915D01*
X10760000Y31474397D01*
X10767631Y31475915D01*
X10778023Y31477982D01*
X10793435Y31479500D01*
X10996538Y31479500D01*
X11047318Y31461018D01*
X11061645Y31445245D01*
X11064290Y31441396D01*
X11067252Y31434728D01*
X11072415Y31429574D01*
X11139691Y31362415D01*
X11145160Y31356955D01*
X11151829Y31354007D01*
X11151830Y31354006D01*
X11240127Y31314971D01*
X11245843Y31312444D01*
X11271094Y31309500D01*
X11728906Y31309500D01*
X11754668Y31312565D01*
X11761202Y31315467D01*
X11848604Y31354290D01*
X11848605Y31354290D01*
X11855272Y31357252D01*
X11933045Y31435160D01*
X11937504Y31445245D01*
X11975153Y31530407D01*
X11975153Y31530408D01*
X11977556Y31535843D01*
X11980500Y31561094D01*
X11980500Y31918906D01*
X11977435Y31944668D01*
X11969729Y31962018D01*
X11935710Y32038604D01*
X11935710Y32038605D01*
X11932748Y32045272D01*
X11860422Y32117473D01*
X11860001Y32117893D01*
X11854840Y32123045D01*
X11848171Y32125993D01*
X11848170Y32125994D01*
X11759593Y32165153D01*
X11759592Y32165153D01*
X11754157Y32167556D01*
X11728906Y32170500D01*
X11271094Y32170500D01*
X11245332Y32167435D01*
X11239916Y32165029D01*
X11239915Y32165029D01*
X11151396Y32125710D01*
X11144728Y32122748D01*
X11066955Y32044840D01*
X11064005Y32038167D01*
X11061747Y32034869D01*
X11017809Y32003411D01*
X10996562Y32000500D01*
X10900624Y32000500D01*
X10849844Y32018982D01*
X10844763Y32023639D01*
X10493159Y32375243D01*
X10470321Y32424219D01*
X10470020Y32431104D01*
X10470020Y32754301D01*
X10471538Y32769713D01*
X10473605Y32780105D01*
X10475123Y32787736D01*
X10454905Y32889378D01*
X10443758Y32906061D01*
X10397330Y32975546D01*
X10382045Y32985759D01*
X10370074Y32995584D01*
X10095584Y33270074D01*
X10085759Y33282045D01*
X10079867Y33290863D01*
X10075546Y33297330D01*
X9989378Y33354905D01*
X9981749Y33356422D01*
X9981748Y33356423D01*
X9913390Y33370020D01*
X9895367Y33373605D01*
X9887736Y33375123D01*
X9880105Y33373605D01*
X9869713Y33371538D01*
X9854301Y33370020D01*
X6145699Y33370020D01*
X6130287Y33371538D01*
X6119895Y33373605D01*
X6112264Y33375123D01*
X6104633Y33373605D01*
X6086610Y33370020D01*
X6018252Y33356423D01*
X6018251Y33356422D01*
X6010622Y33354905D01*
X5924454Y33297330D01*
X5920133Y33290863D01*
X5914241Y33282045D01*
X5904416Y33270074D01*
X5629926Y32995584D01*
X5617955Y32985759D01*
X5602670Y32975546D01*
X5556242Y32906061D01*
X5545095Y32889378D01*
X5524877Y32787736D01*
X5526395Y32780105D01*
X5528462Y32769713D01*
X5529980Y32754301D01*
X5529980Y32006184D01*
X5511498Y31955404D01*
X5506842Y31950323D01*
X5146643Y31590123D01*
X5134671Y31580298D01*
X5119389Y31570087D01*
X5115068Y31563620D01*
X5114861Y31563413D01*
X5065885Y31540575D01*
X5013687Y31554561D01*
X4982692Y31598827D01*
X4980000Y31619274D01*
X4980000Y31646070D01*
X4976116Y31656741D01*
X4970472Y31660000D01*
X4593930Y31660000D01*
X4583259Y31656116D01*
X4580000Y31650472D01*
X4580000Y31323931D01*
X4583884Y31313260D01*
X4589528Y31310001D01*
X4726484Y31310001D01*
X4731160Y31310278D01*
X4748661Y31312360D01*
X4759970Y31315467D01*
X4848317Y31354709D01*
X4860138Y31362834D01*
X4910144Y31412927D01*
X4959100Y31435807D01*
X5011310Y31421866D01*
X5043536Y31372525D01*
X5045182Y31364251D01*
X5046699Y31348842D01*
X5046699Y31122823D01*
X5028217Y31072043D01*
X5023560Y31066962D01*
X4540237Y30583639D01*
X4491261Y30560801D01*
X4484376Y30560500D01*
X3576626Y30560500D01*
X3525846Y30578982D01*
X3510940Y30595610D01*
X3499107Y30613319D01*
X3494786Y30619786D01*
X3416888Y30671836D01*
X3409259Y30673353D01*
X3409258Y30673354D01*
X3352007Y30684742D01*
X3352006Y30684742D01*
X3348196Y30685500D01*
X3151804Y30685500D01*
X3147994Y30684742D01*
X3147993Y30684742D01*
X3090742Y30673354D01*
X3090741Y30673353D01*
X3083112Y30671836D01*
X3054067Y30652428D01*
X3043440Y30645328D01*
X2990950Y30632484D01*
X2955660Y30645328D01*
X2923162Y30667042D01*
X2909060Y30672883D01*
X2851956Y30684242D01*
X2844259Y30685000D01*
X2843930Y30685000D01*
X2833259Y30681116D01*
X2830000Y30675472D01*
X2830000Y30299000D01*
X2811518Y30248220D01*
X2764718Y30221200D01*
X2751000Y30220000D01*
X2749000Y30220000D01*
X2698220Y30238482D01*
X2671200Y30285282D01*
X2670000Y30299000D01*
X2670000Y30671069D01*
X2666116Y30681740D01*
X2660472Y30684999D01*
X2655742Y30684999D01*
X2648043Y30684241D01*
X2590939Y30672883D01*
X2576839Y30667043D01*
X2544340Y30645328D01*
X2491849Y30632484D01*
X2456560Y30645328D01*
X2445933Y30652428D01*
X2416888Y30671836D01*
X2409259Y30673353D01*
X2409258Y30673354D01*
X2352007Y30684742D01*
X2352006Y30684742D01*
X2348196Y30685500D01*
X2151804Y30685500D01*
X2147994Y30684742D01*
X2147993Y30684742D01*
X2090742Y30673354D01*
X2090741Y30673353D01*
X2083112Y30671836D01*
X2005214Y30619786D01*
X1953164Y30541888D01*
X1939500Y30473196D01*
X1939500Y30126804D01*
X1940258Y30122994D01*
X1940258Y30122993D01*
X1948595Y30081083D01*
X1953164Y30058112D01*
X1976187Y30023656D01*
X1989500Y29979768D01*
X1989500Y29724324D01*
X1971018Y29673544D01*
X1959575Y29663151D01*
X1956847Y29661939D01*
X1877759Y29582713D01*
X1832494Y29480327D01*
X1831807Y29474433D01*
X1831806Y29474430D01*
X1829764Y29456913D01*
X1829500Y29454646D01*
X1829500Y29045354D01*
X160000Y29045354D01*
X160000Y30337769D01*
X540000Y30337769D01*
X540276Y30333103D01*
X542412Y30315157D01*
X545519Y30303852D01*
X585517Y30213802D01*
X593642Y30201981D01*
X662413Y30133330D01*
X674244Y30125229D01*
X764354Y30085392D01*
X775695Y30082301D01*
X793139Y30080267D01*
X797725Y30080000D01*
X906070Y30080000D01*
X916741Y30083884D01*
X920000Y30089528D01*
X920000Y30093930D01*
X1080000Y30093930D01*
X1083884Y30083259D01*
X1089528Y30080000D01*
X1202231Y30080000D01*
X1206897Y30080276D01*
X1224843Y30082412D01*
X1236148Y30085519D01*
X1326198Y30125517D01*
X1338019Y30133642D01*
X1406670Y30202413D01*
X1414771Y30214244D01*
X1454608Y30304354D01*
X1457699Y30315695D01*
X1459733Y30333139D01*
X1460000Y30337725D01*
X1460000Y30426070D01*
X1456116Y30436741D01*
X1450472Y30440000D01*
X1093930Y30440000D01*
X1083259Y30436116D01*
X1080000Y30430472D01*
X1080000Y30093930D01*
X920000Y30093930D01*
X920000Y30426070D01*
X916116Y30436741D01*
X910472Y30440000D01*
X553930Y30440000D01*
X543259Y30436116D01*
X540000Y30430472D01*
X540000Y30337769D01*
X160000Y30337769D01*
X160000Y31295354D01*
X539500Y31295354D01*
X542618Y31269154D01*
X545024Y31263738D01*
X585099Y31173514D01*
X585101Y31173511D01*
X588061Y31166847D01*
X667287Y31087759D01*
X702836Y31072043D01*
X703012Y31071965D01*
X741983Y31034529D01*
X747772Y30980800D01*
X717672Y30935921D01*
X703138Y30927513D01*
X673803Y30914483D01*
X661981Y30906358D01*
X593330Y30837587D01*
X585229Y30825756D01*
X545392Y30735646D01*
X542301Y30724305D01*
X540267Y30706861D01*
X540000Y30702275D01*
X540000Y30613930D01*
X543884Y30603259D01*
X549528Y30600000D01*
X1446070Y30600000D01*
X1456741Y30603884D01*
X1460000Y30609528D01*
X1460000Y30702231D01*
X1459724Y30706897D01*
X1457588Y30724843D01*
X1454481Y30736148D01*
X1414483Y30826198D01*
X1406358Y30838019D01*
X1337587Y30906670D01*
X1325756Y30914771D01*
X1296988Y30927489D01*
X1258017Y30964926D01*
X1252228Y31018654D01*
X1282329Y31063534D01*
X1296862Y31071941D01*
X1326485Y31085099D01*
X1326486Y31085100D01*
X1333153Y31088061D01*
X1412241Y31167287D01*
X1415190Y31173957D01*
X1419311Y31179976D01*
X1420901Y31178888D01*
X1451792Y31211049D01*
X1471203Y31217620D01*
X1480654Y31219500D01*
X1549012Y31233097D01*
X1549013Y31233098D01*
X1556642Y31234615D01*
X1642810Y31292190D01*
X1653023Y31307475D01*
X1662848Y31319446D01*
X1759763Y31416361D01*
X1808739Y31439199D01*
X1815624Y31439500D01*
X1923374Y31439500D01*
X1974154Y31421018D01*
X1989060Y31404390D01*
X2005214Y31380214D01*
X2083112Y31328164D01*
X2090741Y31326647D01*
X2090742Y31326646D01*
X2147576Y31315341D01*
X2151804Y31314500D01*
X2348196Y31314500D01*
X2352424Y31315341D01*
X2409258Y31326646D01*
X2409259Y31326647D01*
X2416888Y31328164D01*
X2494786Y31380214D01*
X2546836Y31458112D01*
X2550076Y31474397D01*
X2559742Y31522993D01*
X2559742Y31522994D01*
X2560500Y31526804D01*
X2560500Y31873196D01*
X2558917Y31881156D01*
X2548354Y31934258D01*
X2548353Y31934259D01*
X2546836Y31941888D01*
X2494786Y32019786D01*
X2416888Y32071836D01*
X2409259Y32073353D01*
X2409258Y32073354D01*
X2352007Y32084742D01*
X2352006Y32084742D01*
X2348196Y32085500D01*
X2151804Y32085500D01*
X2147994Y32084742D01*
X2147993Y32084742D01*
X2090742Y32073354D01*
X2090741Y32073353D01*
X2083112Y32071836D01*
X2005214Y32019786D01*
X1992327Y32000500D01*
X1989060Y31995610D01*
X1945480Y31963656D01*
X1923374Y31960500D01*
X1708435Y31960500D01*
X1693023Y31962018D01*
X1682631Y31964085D01*
X1675000Y31965603D01*
X1667369Y31964085D01*
X1649346Y31960500D01*
X1580988Y31946903D01*
X1580987Y31946902D01*
X1573358Y31945385D01*
X1487190Y31887810D01*
X1482869Y31881343D01*
X1476977Y31872525D01*
X1467152Y31860554D01*
X1461652Y31855054D01*
X1412676Y31832216D01*
X1360478Y31846202D01*
X1349986Y31854999D01*
X1332713Y31872241D01*
X1326045Y31875189D01*
X1326042Y31875191D01*
X1307558Y31883362D01*
X1268587Y31920798D01*
X1260500Y31955616D01*
X1260500Y32384376D01*
X1278982Y32435156D01*
X1283639Y32440237D01*
X1366918Y32523516D01*
X1810001Y32523516D01*
X1810278Y32518840D01*
X1812360Y32501339D01*
X1815467Y32490030D01*
X1854709Y32401683D01*
X1862834Y32389862D01*
X1930287Y32322527D01*
X1942118Y32314426D01*
X2030526Y32275341D01*
X2041860Y32272251D01*
X2058902Y32270264D01*
X2063456Y32270000D01*
X2146070Y32270000D01*
X2156741Y32273884D01*
X2160000Y32279528D01*
X2160000Y32283931D01*
X2320000Y32283931D01*
X2323884Y32273260D01*
X2329528Y32270001D01*
X2416484Y32270001D01*
X2421160Y32270278D01*
X2438661Y32272360D01*
X2449970Y32275467D01*
X2538317Y32314709D01*
X2550138Y32322834D01*
X2617473Y32390287D01*
X2625574Y32402118D01*
X2664659Y32490526D01*
X2667749Y32501860D01*
X2669736Y32518902D01*
X2669863Y32521094D01*
X2829500Y32521094D01*
X2832565Y32495332D01*
X2834971Y32489916D01*
X2834971Y32489915D01*
X2873969Y32402118D01*
X2877252Y32394728D01*
X2898010Y32374006D01*
X2949691Y32322415D01*
X2955160Y32316955D01*
X2956834Y32316215D01*
X2986589Y32274657D01*
X2989500Y32253409D01*
X2989500Y32020232D01*
X2976187Y31976344D01*
X2953164Y31941888D01*
X2951647Y31934259D01*
X2951646Y31934258D01*
X2941083Y31881156D01*
X2939500Y31873196D01*
X2939500Y31526804D01*
X2940258Y31522994D01*
X2940258Y31522993D01*
X2949925Y31474397D01*
X2953164Y31458112D01*
X3005214Y31380214D01*
X3083112Y31328164D01*
X3090741Y31326647D01*
X3090742Y31326646D01*
X3147576Y31315341D01*
X3151804Y31314500D01*
X3348196Y31314500D01*
X3352424Y31315341D01*
X3409258Y31326646D01*
X3409259Y31326647D01*
X3416888Y31328164D01*
X3494786Y31380214D01*
X3546836Y31458112D01*
X3550076Y31474397D01*
X3559742Y31522993D01*
X3559742Y31522994D01*
X3560500Y31526804D01*
X3560500Y31563516D01*
X4020001Y31563516D01*
X4020278Y31558840D01*
X4022360Y31541339D01*
X4025467Y31530030D01*
X4064709Y31441683D01*
X4072834Y31429862D01*
X4140287Y31362527D01*
X4152118Y31354426D01*
X4240526Y31315341D01*
X4251860Y31312251D01*
X4268902Y31310264D01*
X4273456Y31310000D01*
X4406070Y31310000D01*
X4416741Y31313884D01*
X4420000Y31319528D01*
X4420000Y31646070D01*
X4416116Y31656741D01*
X4410472Y31660000D01*
X4033931Y31660000D01*
X4023260Y31656116D01*
X4020001Y31650472D01*
X4020001Y31563516D01*
X3560500Y31563516D01*
X3560500Y31833930D01*
X4020000Y31833930D01*
X4023884Y31823259D01*
X4029528Y31820000D01*
X4406070Y31820000D01*
X4416741Y31823884D01*
X4420000Y31829528D01*
X4420000Y31833930D01*
X4580000Y31833930D01*
X4583884Y31823259D01*
X4589528Y31820000D01*
X4966069Y31820000D01*
X4976740Y31823884D01*
X4979999Y31829528D01*
X4979999Y31916484D01*
X4979722Y31921160D01*
X4977640Y31938661D01*
X4974533Y31949970D01*
X4935291Y32038317D01*
X4927166Y32050138D01*
X4859713Y32117473D01*
X4847882Y32125574D01*
X4759474Y32164659D01*
X4748140Y32167749D01*
X4731098Y32169736D01*
X4726544Y32170000D01*
X4593930Y32170000D01*
X4583259Y32166116D01*
X4580000Y32160472D01*
X4580000Y31833930D01*
X4420000Y31833930D01*
X4420000Y32156069D01*
X4416116Y32166740D01*
X4410472Y32169999D01*
X4273516Y32169999D01*
X4268840Y32169722D01*
X4251339Y32167640D01*
X4240030Y32164533D01*
X4151683Y32125291D01*
X4139862Y32117166D01*
X4072527Y32049713D01*
X4064426Y32037882D01*
X4025341Y31949474D01*
X4022251Y31938140D01*
X4020264Y31921098D01*
X4020000Y31916544D01*
X4020000Y31833930D01*
X3560500Y31833930D01*
X3560500Y31873196D01*
X3558917Y31881156D01*
X3548354Y31934258D01*
X3548353Y31934259D01*
X3546836Y31941888D01*
X3523813Y31976344D01*
X3510500Y32020232D01*
X3510500Y32241571D01*
X3528982Y32292351D01*
X3552610Y32310140D01*
X3552596Y32310161D01*
X3553075Y32310490D01*
X3557429Y32313768D01*
X3565272Y32317252D01*
X3643045Y32395160D01*
X3669380Y32454728D01*
X3685153Y32490407D01*
X3685153Y32490408D01*
X3687556Y32495843D01*
X3690500Y32521094D01*
X3690500Y32978906D01*
X3687435Y33004668D01*
X3680238Y33020872D01*
X3645710Y33098604D01*
X3645710Y33098605D01*
X3642748Y33105272D01*
X3570422Y33177473D01*
X3570001Y33177893D01*
X3564840Y33183045D01*
X3558171Y33185993D01*
X3558170Y33185994D01*
X3469593Y33225153D01*
X3469592Y33225153D01*
X3464157Y33227556D01*
X3438906Y33230500D01*
X3081094Y33230500D01*
X3055332Y33227435D01*
X3049916Y33225029D01*
X3049915Y33225029D01*
X2961396Y33185710D01*
X2954728Y33182748D01*
X2876955Y33104840D01*
X2874007Y33098171D01*
X2874006Y33098170D01*
X2835065Y33010085D01*
X2832444Y33004157D01*
X2829500Y32978906D01*
X2829500Y32521094D01*
X2669863Y32521094D01*
X2670000Y32523456D01*
X2670000Y32656070D01*
X2666116Y32666741D01*
X2660472Y32670000D01*
X2333930Y32670000D01*
X2323259Y32666116D01*
X2320000Y32660472D01*
X2320000Y32283931D01*
X2160000Y32283931D01*
X2160000Y32656070D01*
X2156116Y32666741D01*
X2150472Y32670000D01*
X1823931Y32670000D01*
X1813260Y32666116D01*
X1810001Y32660472D01*
X1810001Y32523516D01*
X1366918Y32523516D01*
X1689582Y32846180D01*
X1738558Y32869018D01*
X1790756Y32855032D01*
X1802354Y32839916D01*
X1819528Y32830000D01*
X2146070Y32830000D01*
X2156741Y32833884D01*
X2160000Y32839528D01*
X2160000Y32843930D01*
X2320000Y32843930D01*
X2323884Y32833259D01*
X2329528Y32830000D01*
X2656069Y32830000D01*
X2666740Y32833884D01*
X2669999Y32839528D01*
X2669999Y32976484D01*
X2669722Y32981160D01*
X2667640Y32998661D01*
X2664533Y33009970D01*
X2625291Y33098317D01*
X2617166Y33110138D01*
X2549713Y33177473D01*
X2537882Y33185574D01*
X2449474Y33224659D01*
X2438140Y33227749D01*
X2421098Y33229736D01*
X2416544Y33230000D01*
X2333930Y33230000D01*
X2323259Y33226116D01*
X2320000Y33220472D01*
X2320000Y32843930D01*
X2160000Y32843930D01*
X2160000Y33216069D01*
X2156116Y33226740D01*
X2150472Y33229999D01*
X2107371Y33229999D01*
X2056591Y33248481D01*
X2029890Y33293586D01*
X2027016Y33308030D01*
X2025500Y33323435D01*
X2025500Y34757936D01*
X2043982Y34808716D01*
X2072429Y34830133D01*
X2093915Y34839677D01*
X2175635Y34921539D01*
X2178584Y34928209D01*
X2182705Y34934228D01*
X2184264Y34933161D01*
X2215233Y34965398D01*
X2268962Y34971187D01*
X2313841Y34941086D01*
X2320697Y34929234D01*
X2321716Y34927752D01*
X2324677Y34921085D01*
X2406539Y34839365D01*
X2413206Y34836418D01*
X2413208Y34836416D01*
X2427443Y34830123D01*
X2466414Y34792686D01*
X2474500Y34757869D01*
X2474500Y34123435D01*
X2472982Y34108023D01*
X2469397Y34090000D01*
X2470915Y34082369D01*
X2474500Y34064346D01*
X2487611Y33998435D01*
X2489615Y33988358D01*
X2547190Y33902190D01*
X2553657Y33897869D01*
X2562472Y33891979D01*
X2574444Y33882154D01*
X2867157Y33589440D01*
X2876981Y33577469D01*
X2887190Y33562190D01*
X2973358Y33504615D01*
X2989089Y33501486D01*
X2989091Y33501485D01*
X2989091Y33501486D01*
X3056974Y33487982D01*
X3075000Y33484396D01*
X3082631Y33485914D01*
X3093027Y33487982D01*
X3108440Y33489500D01*
X3934375Y33489500D01*
X3985155Y33471018D01*
X3990237Y33466361D01*
X4180478Y33276119D01*
X4203315Y33227143D01*
X4189329Y33174945D01*
X4156687Y33148061D01*
X4151398Y33145712D01*
X4151393Y33145709D01*
X4144728Y33142748D01*
X4066955Y33064840D01*
X4064007Y33058171D01*
X4064006Y33058170D01*
X4027479Y32975546D01*
X4022444Y32964157D01*
X4019500Y32938906D01*
X4019500Y32581094D01*
X4022565Y32555332D01*
X4024971Y32549916D01*
X4024971Y32549915D01*
X4050889Y32491565D01*
X4067252Y32454728D01*
X4072415Y32449574D01*
X4139691Y32382415D01*
X4145160Y32376955D01*
X4151829Y32374007D01*
X4151830Y32374006D01*
X4240127Y32334971D01*
X4245843Y32332444D01*
X4271094Y32329500D01*
X4728906Y32329500D01*
X4754668Y32332565D01*
X4847965Y32374006D01*
X4848604Y32374290D01*
X4848605Y32374290D01*
X4855272Y32377252D01*
X4933045Y32455160D01*
X4948628Y32490407D01*
X4975153Y32550407D01*
X4975153Y32550408D01*
X4977556Y32555843D01*
X4980500Y32581094D01*
X4980500Y32938906D01*
X4977435Y32964668D01*
X4972187Y32976484D01*
X4935710Y33058604D01*
X4935710Y33058605D01*
X4932748Y33065272D01*
X4887516Y33110426D01*
X4860001Y33137893D01*
X4854840Y33143045D01*
X4848169Y33145994D01*
X4848168Y33145995D01*
X4807558Y33163948D01*
X4768587Y33201384D01*
X4760500Y33236202D01*
X4760500Y33291560D01*
X4762018Y33306973D01*
X4764086Y33317369D01*
X4765604Y33325000D01*
X4759353Y33356423D01*
X4748681Y33410074D01*
X4748680Y33410075D01*
X4745385Y33426641D01*
X4745385Y33426642D01*
X4687810Y33512810D01*
X4672531Y33523019D01*
X4660560Y33532843D01*
X4282846Y33910556D01*
X4273021Y33922528D01*
X4267131Y33931343D01*
X4262810Y33937810D01*
X4176642Y33995385D01*
X4169013Y33996902D01*
X4169012Y33996903D01*
X4100654Y34010500D01*
X4082631Y34014085D01*
X4075000Y34015603D01*
X4067369Y34014085D01*
X4056977Y34012018D01*
X4041565Y34010500D01*
X3215626Y34010500D01*
X3164846Y34028982D01*
X3159765Y34033638D01*
X3018639Y34174763D01*
X2995801Y34223739D01*
X2995500Y34230625D01*
X2995500Y34757936D01*
X3013982Y34808716D01*
X3042429Y34830133D01*
X3063915Y34839677D01*
X3145635Y34921539D01*
X3192406Y35027332D01*
X3195500Y35053871D01*
X3195499Y35446128D01*
X3192278Y35473204D01*
X3176320Y35509131D01*
X3148285Y35572248D01*
X3148283Y35572251D01*
X3145323Y35578915D01*
X3063461Y35660635D01*
X3042557Y35669877D01*
X2963101Y35705004D01*
X2957668Y35707406D01*
X2951769Y35708094D01*
X2951768Y35708094D01*
X2933396Y35710236D01*
X2933391Y35710236D01*
X2931129Y35710500D01*
X2737415Y35710500D01*
X2538872Y35710499D01*
X2511796Y35707278D01*
X2475869Y35691320D01*
X2412752Y35663285D01*
X2412749Y35663283D01*
X2406085Y35660323D01*
X2324365Y35578461D01*
X2321416Y35571791D01*
X2317295Y35565772D01*
X2315736Y35566839D01*
X2284767Y35534602D01*
X2231038Y35528813D01*
X2186159Y35558914D01*
X2179303Y35570766D01*
X2178284Y35572248D01*
X2175323Y35578915D01*
X2093461Y35660635D01*
X2086794Y35663582D01*
X2086792Y35663584D01*
X2072557Y35669877D01*
X2033586Y35707314D01*
X2025500Y35742131D01*
X2025500Y35795500D01*
X2043982Y35846280D01*
X2090782Y35873300D01*
X2104500Y35874500D01*
X13209376Y35874500D01*
X13260156Y35856018D01*
X13265237Y35851361D01*
X13271238Y35845360D01*
X13294076Y35796384D01*
X13280090Y35744186D01*
X13235824Y35713191D01*
X13215380Y35710499D01*
X13068872Y35710499D01*
X13041796Y35707278D01*
X13005869Y35691320D01*
X12942752Y35663285D01*
X12942749Y35663283D01*
X12936085Y35660323D01*
X12854365Y35578461D01*
X12807594Y35472668D01*
X12804500Y35446129D01*
X12804501Y35053872D01*
X12807722Y35026796D01*
X12810128Y35021380D01*
X12851715Y34927752D01*
X12851717Y34927749D01*
X12854677Y34921085D01*
X12936539Y34839365D01*
X12943206Y34836418D01*
X12943208Y34836416D01*
X12957443Y34830123D01*
X12996414Y34792686D01*
X13004500Y34757869D01*
X13004500Y34105624D01*
X12986018Y34054844D01*
X12981361Y34049763D01*
X12020650Y33089052D01*
X11971674Y33066214D01*
X11919476Y33080200D01*
X11908976Y33089003D01*
X11860001Y33137893D01*
X11854840Y33143045D01*
X11848171Y33145993D01*
X11848170Y33145994D01*
X11759593Y33185153D01*
X11759592Y33185153D01*
X11754157Y33187556D01*
X11728906Y33190500D01*
X11271094Y33190500D01*
X11245332Y33187435D01*
X11239916Y33185029D01*
X11239915Y33185029D01*
X11151401Y33145712D01*
X11144728Y33142748D01*
X11066955Y33064840D01*
X11064007Y33058171D01*
X11064006Y33058170D01*
X11027479Y32975546D01*
X11022444Y32964157D01*
X11019500Y32938906D01*
X11019500Y32581094D01*
X11022565Y32555332D01*
X11024971Y32549916D01*
X11024971Y32549915D01*
X11050889Y32491565D01*
X11067252Y32454728D01*
X11072415Y32449574D01*
X11139691Y32382415D01*
X11145160Y32376955D01*
X11151829Y32374007D01*
X11151830Y32374006D01*
X11240127Y32334971D01*
X11245843Y32332444D01*
X11271094Y32329500D01*
X11728906Y32329500D01*
X11754668Y32332565D01*
X11847965Y32374006D01*
X11848604Y32374290D01*
X11848605Y32374290D01*
X11855272Y32377252D01*
X11933045Y32455160D01*
X11935995Y32461833D01*
X11938253Y32465131D01*
X11982191Y32496589D01*
X12003438Y32499500D01*
X12026565Y32499500D01*
X12041978Y32497982D01*
X12060000Y32494397D01*
X12067631Y32495915D01*
X12071020Y32496589D01*
X12085654Y32499500D01*
X12094899Y32501339D01*
X12154012Y32513097D01*
X12154013Y32513098D01*
X12161642Y32514615D01*
X12247810Y32572190D01*
X12258023Y32587475D01*
X12267848Y32599446D01*
X13425554Y33757152D01*
X13437525Y33766977D01*
X13446343Y33772869D01*
X13452810Y33777190D01*
X13510385Y33863358D01*
X13511902Y33870985D01*
X13511903Y33870987D01*
X13522435Y33923938D01*
X13529085Y33957368D01*
X13529085Y33957369D01*
X13530603Y33965000D01*
X13527018Y33983023D01*
X13525500Y33998435D01*
X13525500Y34757936D01*
X13543982Y34808716D01*
X13572429Y34830133D01*
X13593915Y34839677D01*
X13675635Y34921539D01*
X13678584Y34928209D01*
X13682705Y34934228D01*
X13684264Y34933161D01*
X13715233Y34965398D01*
X13768962Y34971187D01*
X13813841Y34941086D01*
X13820697Y34929234D01*
X13821716Y34927752D01*
X13824677Y34921085D01*
X13906539Y34839365D01*
X13913208Y34836417D01*
X13913209Y34836416D01*
X13974501Y34809319D01*
X14012332Y34792594D01*
X14018231Y34791906D01*
X14018232Y34791906D01*
X14036604Y34789764D01*
X14036609Y34789764D01*
X14038871Y34789500D01*
X14232585Y34789500D01*
X14431128Y34789501D01*
X14458204Y34792722D01*
X14495569Y34809319D01*
X14557248Y34836715D01*
X14557251Y34836717D01*
X14563915Y34839677D01*
X14645635Y34921539D01*
X14692406Y35027332D01*
X14695500Y35053871D01*
X14695499Y35446128D01*
X14692278Y35473204D01*
X14676320Y35509131D01*
X14648285Y35572248D01*
X14648283Y35572251D01*
X14645323Y35578915D01*
X14563461Y35660635D01*
X14542557Y35669877D01*
X14463101Y35705004D01*
X14457668Y35707406D01*
X14451769Y35708094D01*
X14451768Y35708094D01*
X14433396Y35710236D01*
X14433391Y35710236D01*
X14431129Y35710500D01*
X14412300Y35710500D01*
X14175625Y35710499D01*
X14124845Y35728981D01*
X14119764Y35733638D01*
X13557848Y36295554D01*
X13548023Y36307525D01*
X13542131Y36316343D01*
X13537810Y36322810D01*
X13451642Y36380385D01*
X13444013Y36381902D01*
X13444012Y36381903D01*
X13375654Y36395500D01*
X13357631Y36399085D01*
X13350000Y36400603D01*
X13342369Y36399085D01*
X13331977Y36397018D01*
X13316565Y36395500D01*
X10741047Y36395500D01*
X10690267Y36413982D01*
X10663247Y36460782D01*
X10675361Y36518390D01*
X10691063Y36541890D01*
X10695385Y36548358D01*
X10704681Y36595090D01*
X10732714Y36641287D01*
X10750093Y36651875D01*
X10778915Y36664677D01*
X10794487Y36680276D01*
X10843444Y36703156D01*
X10895653Y36689215D01*
X10906210Y36680373D01*
X10916663Y36669938D01*
X10928500Y36661834D01*
X11022013Y36620492D01*
X11033354Y36617401D01*
X11051656Y36615267D01*
X11056242Y36615000D01*
X11156070Y36615000D01*
X11166741Y36618884D01*
X11170000Y36624528D01*
X11170000Y36628931D01*
X11330000Y36628931D01*
X11333884Y36618260D01*
X11339528Y36615001D01*
X11443711Y36615001D01*
X11448385Y36615278D01*
X11467196Y36617515D01*
X11478507Y36620624D01*
X11571961Y36662134D01*
X11583781Y36670258D01*
X11655064Y36741665D01*
X11663165Y36753496D01*
X11704508Y36847013D01*
X11707599Y36858354D01*
X11709733Y36876656D01*
X11710000Y36881242D01*
X11709999Y37153293D01*
X11728481Y37204073D01*
X11775281Y37231093D01*
X11828499Y37221709D01*
X11841552Y37212277D01*
X11937009Y37127228D01*
X11944768Y37121835D01*
X12077537Y37051537D01*
X12086354Y37048153D01*
X12230351Y37011984D01*
X12236761Y37014280D01*
X12240000Y37019824D01*
X12240000Y37024349D01*
X12400000Y37024349D01*
X12403884Y37013678D01*
X12406325Y37012268D01*
X12407904Y37012317D01*
X12547119Y37045740D01*
X12555976Y37049034D01*
X12689465Y37117932D01*
X12697288Y37123249D01*
X12810489Y37222000D01*
X12816818Y37229030D01*
X12903195Y37351931D01*
X12907661Y37360260D01*
X12962229Y37500220D01*
X12964582Y37509385D01*
X12979662Y37623926D01*
X12980000Y37629085D01*
X12980000Y38126070D01*
X12976116Y38136741D01*
X12970472Y38140000D01*
X12413930Y38140000D01*
X12403259Y38136116D01*
X12400000Y38130472D01*
X12400000Y37024349D01*
X12240000Y37024349D01*
X12240000Y38126070D01*
X12236116Y38136741D01*
X12230472Y38140000D01*
X11673930Y38140000D01*
X11643454Y38128908D01*
X11589415Y38128908D01*
X11571803Y38137960D01*
X11571504Y38138165D01*
X11477987Y38179508D01*
X11466646Y38182599D01*
X11448344Y38184733D01*
X11443758Y38185000D01*
X11343930Y38185000D01*
X11333259Y38181116D01*
X11330000Y38175472D01*
X11330000Y36628931D01*
X11170000Y36628931D01*
X11170000Y38171069D01*
X11166116Y38181740D01*
X11144218Y38194383D01*
X11145210Y38196101D01*
X11120610Y38207572D01*
X11097773Y38256548D01*
X11111759Y38308746D01*
X11117265Y38313930D01*
X11660000Y38313930D01*
X11663884Y38303259D01*
X11669528Y38300000D01*
X12226070Y38300000D01*
X12236741Y38303884D01*
X12240000Y38309528D01*
X12240000Y38313930D01*
X12400000Y38313930D01*
X12403884Y38303259D01*
X12409528Y38300000D01*
X12966070Y38300000D01*
X12976741Y38303884D01*
X12980000Y38309528D01*
X12980000Y38807674D01*
X12979714Y38812416D01*
X12966228Y38923864D01*
X12963974Y38933040D01*
X12910874Y39073565D01*
X12906492Y39081947D01*
X12821409Y39205743D01*
X12815149Y39212843D01*
X12702991Y39312772D01*
X12695232Y39318165D01*
X12562463Y39388463D01*
X12553646Y39391847D01*
X12409649Y39428016D01*
X12403239Y39425720D01*
X12400000Y39420176D01*
X12400000Y38313930D01*
X12240000Y38313930D01*
X12240000Y39415651D01*
X12236116Y39426322D01*
X12233675Y39427732D01*
X12232096Y39427683D01*
X12092881Y39394260D01*
X12084024Y39390966D01*
X11950535Y39322068D01*
X11942712Y39316751D01*
X11829511Y39218000D01*
X11823182Y39210970D01*
X11736805Y39088069D01*
X11732339Y39079740D01*
X11677771Y38939780D01*
X11675418Y38930615D01*
X11660338Y38816074D01*
X11660000Y38810915D01*
X11660000Y38313930D01*
X11117265Y38313930D01*
X11135135Y38330755D01*
X11203311Y38372615D01*
X11207084Y38376783D01*
X11207086Y38376785D01*
X11292860Y38471547D01*
X11292861Y38471548D01*
X11296637Y38475720D01*
X11357274Y38600874D01*
X11373670Y38698326D01*
X11379841Y38735008D01*
X11379841Y38735009D01*
X11380347Y38738016D01*
X11380493Y38750000D01*
X11371769Y38810915D01*
X11361576Y38882095D01*
X11361575Y38882097D01*
X11360778Y38887665D01*
X11357155Y38895635D01*
X11305547Y39009138D01*
X11303217Y39014263D01*
X11234917Y39093530D01*
X11216111Y39115356D01*
X11216108Y39115358D01*
X11212438Y39119618D01*
X11207718Y39122677D01*
X11207716Y39122679D01*
X11100462Y39192196D01*
X11100463Y39192196D01*
X11095738Y39195258D01*
X11087443Y39197739D01*
X10967889Y39233493D01*
X10962499Y39235105D01*
X10893483Y39235527D01*
X10829057Y39235921D01*
X10829054Y39235921D01*
X10823432Y39235955D01*
X10689717Y39197739D01*
X10572102Y39123529D01*
X10480042Y39019292D01*
X10467402Y38992369D01*
X10431189Y38915237D01*
X10420939Y38893406D01*
X10399544Y38755992D01*
X10407085Y38698326D01*
X10415703Y38632422D01*
X10417576Y38618097D01*
X10419841Y38612950D01*
X10419841Y38612949D01*
X10453737Y38535913D01*
X10473585Y38490805D01*
X10563070Y38384349D01*
X10580698Y38372615D01*
X10644322Y38330263D01*
X10676352Y38286739D01*
X10672912Y38232809D01*
X10635611Y38193708D01*
X10600547Y38185500D01*
X10273057Y38185499D01*
X10253872Y38185499D01*
X10226796Y38182278D01*
X10203288Y38171836D01*
X10127752Y38138285D01*
X10127749Y38138283D01*
X10121085Y38135323D01*
X10115933Y38130162D01*
X10115930Y38130160D01*
X10105015Y38119226D01*
X10056058Y38096347D01*
X10003849Y38110290D01*
X9997669Y38115472D01*
X9994786Y38119786D01*
X9916888Y38171836D01*
X9909259Y38173353D01*
X9909258Y38173354D01*
X9852007Y38184742D01*
X9852006Y38184742D01*
X9848196Y38185500D01*
X9651804Y38185500D01*
X9604911Y38176172D01*
X9551503Y38184392D01*
X9515872Y38225020D01*
X9510500Y38253654D01*
X9510500Y38859376D01*
X9528982Y38910156D01*
X9533639Y38915237D01*
X10324764Y39706361D01*
X10373740Y39729199D01*
X10380625Y39729500D01*
X13496538Y39729500D01*
X13547318Y39711018D01*
X13561645Y39695245D01*
X13564290Y39691396D01*
X13567252Y39684728D01*
X13572415Y39679574D01*
X13639691Y39612415D01*
X13645160Y39606955D01*
X13651829Y39604007D01*
X13651830Y39604006D01*
X13729882Y39569500D01*
X13745843Y39562444D01*
X13771094Y39559500D01*
X14228906Y39559500D01*
X14254668Y39562565D01*
X14270905Y39569777D01*
X14348604Y39604290D01*
X14348605Y39604290D01*
X14355272Y39607252D01*
X14433045Y39685160D01*
X14437504Y39695245D01*
X14475153Y39780407D01*
X14475153Y39780408D01*
X14477556Y39785843D01*
X14480500Y39811094D01*
X14480500Y40168906D01*
X14477435Y40194668D01*
X14450369Y40255603D01*
X14435710Y40288604D01*
X14435710Y40288605D01*
X14432748Y40295272D01*
X14394853Y40333101D01*
X14360001Y40367893D01*
X14354840Y40373045D01*
X14348171Y40375993D01*
X14348170Y40375994D01*
X14259593Y40415153D01*
X14259592Y40415153D01*
X14254157Y40417556D01*
X14228906Y40420500D01*
X13771094Y40420500D01*
X13745332Y40417435D01*
X13739916Y40415029D01*
X13739915Y40415029D01*
X13651396Y40375710D01*
X13644728Y40372748D01*
X13566955Y40294840D01*
X13564005Y40288167D01*
X13561747Y40284869D01*
X13517809Y40253411D01*
X13496562Y40250500D01*
X10273435Y40250500D01*
X10258023Y40252018D01*
X10247631Y40254085D01*
X10240000Y40255603D01*
X10221977Y40252018D01*
X10214346Y40250500D01*
X10145988Y40236903D01*
X10145987Y40236902D01*
X10138358Y40235385D01*
X10052190Y40177810D01*
X10047869Y40171343D01*
X10041979Y40162528D01*
X10032154Y40150557D01*
X9089446Y39207848D01*
X9077475Y39198023D01*
X9062190Y39187810D01*
X9016626Y39119618D01*
X9004615Y39101642D01*
X8984397Y39000000D01*
X8985915Y38992369D01*
X8987982Y38981977D01*
X8989500Y38966565D01*
X8989500Y38253654D01*
X8971018Y38202874D01*
X8924218Y38175854D01*
X8895090Y38176172D01*
X8848196Y38185500D01*
X8651804Y38185500D01*
X8647994Y38184742D01*
X8647993Y38184742D01*
X8590742Y38173354D01*
X8590741Y38173353D01*
X8583112Y38171836D01*
X8576643Y38167514D01*
X8576644Y38167514D01*
X8543890Y38145629D01*
X8491399Y38132785D01*
X8456110Y38145629D01*
X8423356Y38167514D01*
X8423357Y38167514D01*
X8416888Y38171836D01*
X8409259Y38173353D01*
X8409258Y38173354D01*
X8352007Y38184742D01*
X8352006Y38184742D01*
X8348196Y38185500D01*
X8151804Y38185500D01*
X8147994Y38184742D01*
X8147993Y38184742D01*
X8090742Y38173354D01*
X8090741Y38173353D01*
X8083112Y38171836D01*
X8076643Y38167514D01*
X8076644Y38167514D01*
X8043890Y38145629D01*
X7991399Y38132785D01*
X7956110Y38145629D01*
X7923356Y38167514D01*
X7923357Y38167514D01*
X7916888Y38171836D01*
X7909259Y38173353D01*
X7909258Y38173354D01*
X7852007Y38184742D01*
X7852006Y38184742D01*
X7848196Y38185500D01*
X7651804Y38185500D01*
X7647994Y38184742D01*
X7647993Y38184742D01*
X7590742Y38173354D01*
X7590741Y38173353D01*
X7583112Y38171836D01*
X7576643Y38167514D01*
X7576644Y38167514D01*
X7543890Y38145629D01*
X7491399Y38132785D01*
X7456110Y38145629D01*
X7423356Y38167514D01*
X7423357Y38167514D01*
X7416888Y38171836D01*
X7409259Y38173353D01*
X7409258Y38173354D01*
X7352007Y38184742D01*
X7352006Y38184742D01*
X7348196Y38185500D01*
X7151804Y38185500D01*
X7147994Y38184742D01*
X7147993Y38184742D01*
X7090742Y38173354D01*
X7090741Y38173353D01*
X7083112Y38171836D01*
X7076643Y38167514D01*
X7076644Y38167514D01*
X7043890Y38145629D01*
X6991399Y38132785D01*
X6956110Y38145629D01*
X6923356Y38167514D01*
X6923357Y38167514D01*
X6916888Y38171836D01*
X6909259Y38173353D01*
X6909258Y38173354D01*
X6852007Y38184742D01*
X6852006Y38184742D01*
X6848196Y38185500D01*
X6651804Y38185500D01*
X6604911Y38176172D01*
X6551503Y38184392D01*
X6515872Y38225020D01*
X6510500Y38253654D01*
X6510500Y38966560D01*
X6512018Y38981973D01*
X6514086Y38992369D01*
X6515604Y39000000D01*
X6495385Y39101641D01*
X6495385Y39101642D01*
X6437810Y39187810D01*
X6422528Y39198021D01*
X6410557Y39207846D01*
X5457848Y40160554D01*
X5448023Y40172525D01*
X5442131Y40181343D01*
X5437810Y40187810D01*
X5351642Y40245385D01*
X5344013Y40246902D01*
X5344012Y40246903D01*
X5275654Y40260500D01*
X5257631Y40264085D01*
X5250000Y40265603D01*
X5242369Y40264085D01*
X5231977Y40262018D01*
X5216565Y40260500D01*
X2503462Y40260500D01*
X2452682Y40278982D01*
X2438355Y40294755D01*
X2435710Y40298604D01*
X2432748Y40305272D01*
X2361903Y40375994D01*
X2360001Y40377893D01*
X2354840Y40383045D01*
X2348171Y40385993D01*
X2348170Y40385994D01*
X2259593Y40425153D01*
X2259592Y40425153D01*
X2254157Y40427556D01*
X2228906Y40430500D01*
X1771094Y40430500D01*
X1745332Y40427435D01*
X1739916Y40425029D01*
X1739915Y40425029D01*
X1651396Y40385710D01*
X1644728Y40382748D01*
X1566955Y40304840D01*
X1564007Y40298171D01*
X1564006Y40298170D01*
X1534339Y40231063D01*
X1522444Y40204157D01*
X1519500Y40178906D01*
X1519500Y39821094D01*
X1522565Y39795332D01*
X1567252Y39694728D01*
X1572415Y39689574D01*
X1639691Y39622415D01*
X1645160Y39616955D01*
X1651829Y39614007D01*
X1651830Y39614006D01*
X1674450Y39604006D01*
X1745843Y39572444D01*
X1771094Y39569500D01*
X2228906Y39569500D01*
X2254668Y39572565D01*
X2325452Y39604006D01*
X2348604Y39614290D01*
X2348605Y39614290D01*
X2355272Y39617252D01*
X2433045Y39695160D01*
X2435995Y39701833D01*
X2438253Y39705131D01*
X2482191Y39736589D01*
X2503438Y39739500D01*
X5109376Y39739500D01*
X5160156Y39721018D01*
X5165237Y39716361D01*
X5966361Y38915236D01*
X5989199Y38866260D01*
X5989500Y38859375D01*
X5989500Y38207823D01*
X5971018Y38157043D01*
X5924218Y38130023D01*
X5879468Y38137914D01*
X5878461Y38135635D01*
X5806353Y38167514D01*
X5772668Y38182406D01*
X5766769Y38183094D01*
X5766768Y38183094D01*
X5748396Y38185236D01*
X5748391Y38185236D01*
X5746129Y38185500D01*
X5726888Y38185500D01*
X5398209Y38185499D01*
X5347429Y38203981D01*
X5320409Y38250781D01*
X5329793Y38303999D01*
X5356873Y38331822D01*
X5418518Y38369672D01*
X5423311Y38372615D01*
X5427084Y38376783D01*
X5427086Y38376785D01*
X5512860Y38471547D01*
X5512861Y38471548D01*
X5516637Y38475720D01*
X5577274Y38600874D01*
X5593670Y38698326D01*
X5599841Y38735008D01*
X5599841Y38735009D01*
X5600347Y38738016D01*
X5600493Y38750000D01*
X5591769Y38810915D01*
X5581576Y38882095D01*
X5581575Y38882097D01*
X5580778Y38887665D01*
X5577155Y38895635D01*
X5525547Y39009138D01*
X5523217Y39014263D01*
X5454917Y39093530D01*
X5436111Y39115356D01*
X5436108Y39115358D01*
X5432438Y39119618D01*
X5427718Y39122677D01*
X5427716Y39122679D01*
X5320462Y39192196D01*
X5320463Y39192196D01*
X5315738Y39195258D01*
X5307443Y39197739D01*
X5187889Y39233493D01*
X5182499Y39235105D01*
X5113483Y39235527D01*
X5049057Y39235921D01*
X5049054Y39235921D01*
X5043432Y39235955D01*
X4909717Y39197739D01*
X4792102Y39123529D01*
X4700042Y39019292D01*
X4687402Y38992369D01*
X4651189Y38915237D01*
X4640939Y38893406D01*
X4619544Y38755992D01*
X4627085Y38698326D01*
X4635703Y38632422D01*
X4637576Y38618097D01*
X4639841Y38612950D01*
X4639841Y38612949D01*
X4673737Y38535913D01*
X4693585Y38490805D01*
X4783070Y38384349D01*
X4787756Y38381230D01*
X4787758Y38381228D01*
X4868150Y38327714D01*
X4900179Y38284190D01*
X4896739Y38230261D01*
X4859438Y38191160D01*
X4851393Y38187716D01*
X4833259Y38181116D01*
X4830000Y38175472D01*
X4830000Y37399000D01*
X4811518Y37348220D01*
X4764718Y37321200D01*
X4751000Y37320000D01*
X4749000Y37320000D01*
X4698220Y37338482D01*
X4671200Y37385282D01*
X4670000Y37399000D01*
X4670000Y38171069D01*
X4666116Y38181740D01*
X4660472Y38184999D01*
X4556289Y38184999D01*
X4551615Y38184722D01*
X4532804Y38182485D01*
X4521493Y38179376D01*
X4428038Y38137866D01*
X4426263Y38136646D01*
X4423938Y38136045D01*
X4421372Y38134905D01*
X4421182Y38135332D01*
X4373945Y38123115D01*
X4342016Y38133335D01*
X4330472Y38140000D01*
X3773930Y38140000D01*
X3763259Y38136116D01*
X3760000Y38130472D01*
X3760000Y37024349D01*
X3763884Y37013678D01*
X3766325Y37012268D01*
X3767904Y37012317D01*
X3907119Y37045740D01*
X3915976Y37049034D01*
X4049465Y37117932D01*
X4057293Y37123252D01*
X4159067Y37212036D01*
X4209483Y37231490D01*
X4260609Y37213986D01*
X4288522Y37167715D01*
X4290000Y37152505D01*
X4290001Y36881290D01*
X4290278Y36876615D01*
X4293216Y36851914D01*
X4291082Y36851660D01*
X4287424Y36806566D01*
X4249455Y36768114D01*
X4215616Y36760500D01*
X2440624Y36760500D01*
X2389844Y36778982D01*
X2384763Y36783639D01*
X2283639Y36884763D01*
X2260801Y36933739D01*
X2260500Y36940624D01*
X2260500Y37022936D01*
X2278982Y37073716D01*
X2307429Y37095133D01*
X2328915Y37104677D01*
X2410635Y37186539D01*
X2434050Y37239501D01*
X2443632Y37261176D01*
X2457406Y37292332D01*
X2460500Y37318871D01*
X2460499Y37632326D01*
X3020000Y37632326D01*
X3020286Y37627584D01*
X3033772Y37516136D01*
X3036026Y37506960D01*
X3089126Y37366435D01*
X3093508Y37358053D01*
X3178591Y37234257D01*
X3184851Y37227157D01*
X3297009Y37127228D01*
X3304768Y37121835D01*
X3437537Y37051537D01*
X3446354Y37048153D01*
X3590351Y37011984D01*
X3596761Y37014280D01*
X3600000Y37019824D01*
X3600000Y38126070D01*
X3596116Y38136741D01*
X3590472Y38140000D01*
X3033930Y38140000D01*
X3023259Y38136116D01*
X3020000Y38130472D01*
X3020000Y37632326D01*
X2460499Y37632326D01*
X2460499Y37711128D01*
X2457278Y37738204D01*
X2425346Y37810094D01*
X2413285Y37837248D01*
X2413283Y37837251D01*
X2410323Y37843915D01*
X2328461Y37925635D01*
X2321791Y37928584D01*
X2315772Y37932705D01*
X2316839Y37934264D01*
X2284602Y37965233D01*
X2278813Y38018962D01*
X2308914Y38063841D01*
X2320766Y38070697D01*
X2322248Y38071716D01*
X2328915Y38074677D01*
X2410635Y38156539D01*
X2413748Y38163579D01*
X2455004Y38256899D01*
X2457406Y38262332D01*
X2458094Y38268232D01*
X2460236Y38286604D01*
X2460236Y38286609D01*
X2460500Y38288871D01*
X2460500Y38313930D01*
X3020000Y38313930D01*
X3023884Y38303259D01*
X3029528Y38300000D01*
X3586070Y38300000D01*
X3596741Y38303884D01*
X3600000Y38309528D01*
X3600000Y38313930D01*
X3760000Y38313930D01*
X3763884Y38303259D01*
X3769528Y38300000D01*
X4326070Y38300000D01*
X4336741Y38303884D01*
X4340000Y38309528D01*
X4340000Y38807674D01*
X4339714Y38812416D01*
X4326228Y38923864D01*
X4323974Y38933040D01*
X4270874Y39073565D01*
X4266492Y39081947D01*
X4181409Y39205743D01*
X4175149Y39212843D01*
X4062991Y39312772D01*
X4055232Y39318165D01*
X3922463Y39388463D01*
X3913646Y39391847D01*
X3769649Y39428016D01*
X3763239Y39425720D01*
X3760000Y39420176D01*
X3760000Y38313930D01*
X3600000Y38313930D01*
X3600000Y39415651D01*
X3596116Y39426322D01*
X3593675Y39427732D01*
X3592096Y39427683D01*
X3452881Y39394260D01*
X3444024Y39390966D01*
X3310535Y39322068D01*
X3302712Y39316751D01*
X3189511Y39218000D01*
X3183182Y39210970D01*
X3096805Y39088069D01*
X3092339Y39079740D01*
X3037771Y38939780D01*
X3035418Y38930615D01*
X3020338Y38816074D01*
X3020000Y38810915D01*
X3020000Y38313930D01*
X2460500Y38313930D01*
X2460499Y38681128D01*
X2457278Y38708204D01*
X2438573Y38750316D01*
X2413285Y38807248D01*
X2413283Y38807251D01*
X2410323Y38813915D01*
X2328461Y38895635D01*
X2295616Y38910156D01*
X2228101Y38940004D01*
X2222668Y38942406D01*
X2216769Y38943094D01*
X2216768Y38943094D01*
X2198396Y38945236D01*
X2198391Y38945236D01*
X2196129Y38945500D01*
X2002415Y38945500D01*
X1803872Y38945499D01*
X1776796Y38942278D01*
X1750539Y38930615D01*
X1677752Y38898285D01*
X1677749Y38898283D01*
X1671085Y38895323D01*
X1589365Y38813461D01*
X1586417Y38806792D01*
X1586414Y38806788D01*
X1578320Y38788480D01*
X1540883Y38749510D01*
X1521481Y38742942D01*
X1465988Y38731903D01*
X1465987Y38731903D01*
X1458358Y38730385D01*
X1451889Y38726063D01*
X1451890Y38726063D01*
X1429599Y38711169D01*
X1377109Y38698326D01*
X1342664Y38711085D01*
X1339092Y38714650D01*
X1332422Y38717599D01*
X1247253Y38755252D01*
X1247252Y38755252D01*
X1241817Y38757655D01*
X1217415Y38760500D01*
X1002200Y38760500D01*
X782586Y38760499D01*
X780258Y38760222D01*
X780256Y38760222D01*
X776506Y38759776D01*
X757690Y38757538D01*
X752273Y38755132D01*
X752270Y38755131D01*
X696560Y38730385D01*
X660490Y38714363D01*
X585350Y38639092D01*
X582402Y38632423D01*
X582401Y38632422D01*
X566215Y38595809D01*
X542345Y38541817D01*
X539500Y38517415D01*
X539501Y38182586D01*
X539778Y38180258D01*
X539778Y38180256D01*
X540063Y38177857D01*
X542462Y38157690D01*
X544868Y38152273D01*
X544869Y38152270D01*
X569489Y38096843D01*
X585637Y38060490D01*
X590800Y38055336D01*
X594931Y38049325D01*
X593721Y38048494D01*
X613162Y38006896D01*
X599221Y37954686D01*
X590595Y37944388D01*
X590504Y37944255D01*
X585350Y37939092D01*
X582402Y37932423D01*
X582401Y37932422D01*
X577409Y37921129D01*
X542345Y37841817D01*
X539500Y37817415D01*
X539501Y37482586D01*
X542462Y37457690D01*
X544868Y37452273D01*
X544869Y37452270D01*
X582675Y37367158D01*
X585637Y37360490D01*
X660908Y37285350D01*
X667577Y37282402D01*
X667578Y37282401D01*
X752747Y37244748D01*
X752748Y37244748D01*
X758183Y37242345D01*
X782585Y37239500D01*
X797622Y37239500D01*
X1060500Y37239501D01*
X1111280Y37221019D01*
X1138300Y37174219D01*
X1139500Y37160501D01*
X1139500Y36533435D01*
X1137982Y36518023D01*
X1134397Y36500000D01*
X1139500Y36474346D01*
X1154615Y36398358D01*
X1212190Y36312190D01*
X1218657Y36307869D01*
X1227475Y36301977D01*
X1239446Y36292152D01*
X1481361Y36050237D01*
X1504199Y36001261D01*
X1504500Y35994376D01*
X1504500Y35742064D01*
X1486018Y35691284D01*
X1457571Y35669867D01*
X1436085Y35660323D01*
X1354365Y35578461D01*
X1307594Y35472668D01*
X1304500Y35446129D01*
X1304501Y35053872D01*
X1307722Y35026796D01*
X1310128Y35021380D01*
X1351715Y34927752D01*
X1351717Y34927749D01*
X1354677Y34921085D01*
X1436539Y34839365D01*
X1443206Y34836418D01*
X1443208Y34836416D01*
X1457443Y34830123D01*
X1496414Y34792686D01*
X1504500Y34757869D01*
X1504500Y33430624D01*
X1486018Y33379844D01*
X1481361Y33374763D01*
X839446Y32732848D01*
X827475Y32723023D01*
X812190Y32712810D01*
X807867Y32706340D01*
X807865Y32706338D01*
X775807Y32658358D01*
X754615Y32626642D01*
X734397Y32525000D01*
X735915Y32517369D01*
X737982Y32506977D01*
X739500Y32491565D01*
X739500Y31955562D01*
X721018Y31904782D01*
X692570Y31883364D01*
X666847Y31871939D01*
X587759Y31792713D01*
X542494Y31690327D01*
X541807Y31684433D01*
X541806Y31684430D01*
X539764Y31666913D01*
X539500Y31664646D01*
X539500Y31295354D01*
X160000Y31295354D01*
X160000Y40843516D01*
X1520001Y40843516D01*
X1520278Y40838840D01*
X1522360Y40821339D01*
X1525467Y40810030D01*
X1564709Y40721683D01*
X1572834Y40709862D01*
X1640287Y40642527D01*
X1652118Y40634426D01*
X1740526Y40595341D01*
X1751860Y40592251D01*
X1768902Y40590264D01*
X1773456Y40590000D01*
X1906070Y40590000D01*
X1916741Y40593884D01*
X1920000Y40599528D01*
X1920000Y40603931D01*
X2080000Y40603931D01*
X2083884Y40593260D01*
X2089528Y40590001D01*
X2226484Y40590001D01*
X2231160Y40590278D01*
X2248661Y40592360D01*
X2259970Y40595467D01*
X2348317Y40634709D01*
X2360138Y40642834D01*
X2427473Y40710287D01*
X2435574Y40722118D01*
X2474659Y40810526D01*
X2477749Y40821860D01*
X2479108Y40833516D01*
X13520001Y40833516D01*
X13520278Y40828840D01*
X13522360Y40811339D01*
X13525467Y40800030D01*
X13564709Y40711683D01*
X13572834Y40699862D01*
X13640287Y40632527D01*
X13652118Y40624426D01*
X13740526Y40585341D01*
X13751860Y40582251D01*
X13768902Y40580264D01*
X13773456Y40580000D01*
X13906070Y40580000D01*
X13916741Y40583884D01*
X13920000Y40589528D01*
X13920000Y40593931D01*
X14080000Y40593931D01*
X14083884Y40583260D01*
X14089528Y40580001D01*
X14226484Y40580001D01*
X14231160Y40580278D01*
X14248661Y40582360D01*
X14259970Y40585467D01*
X14348317Y40624709D01*
X14360138Y40632834D01*
X14427473Y40700287D01*
X14435574Y40712118D01*
X14474659Y40800526D01*
X14477749Y40811860D01*
X14479736Y40828902D01*
X14480000Y40833456D01*
X14480000Y40916070D01*
X14476116Y40926741D01*
X14470472Y40930000D01*
X14093930Y40930000D01*
X14083259Y40926116D01*
X14080000Y40920472D01*
X14080000Y40593931D01*
X13920000Y40593931D01*
X13920000Y40916070D01*
X13916116Y40926741D01*
X13910472Y40930000D01*
X13533931Y40930000D01*
X13523260Y40926116D01*
X13520001Y40920472D01*
X13520001Y40833516D01*
X2479108Y40833516D01*
X2479736Y40838902D01*
X2480000Y40843456D01*
X2480000Y40926070D01*
X2476116Y40936741D01*
X2470472Y40940000D01*
X2093930Y40940000D01*
X2083259Y40936116D01*
X2080000Y40930472D01*
X2080000Y40603931D01*
X1920000Y40603931D01*
X1920000Y40926070D01*
X1916116Y40936741D01*
X1910472Y40940000D01*
X1533931Y40940000D01*
X1523260Y40936116D01*
X1520001Y40930472D01*
X1520001Y40843516D01*
X160000Y40843516D01*
X160000Y41113930D01*
X1520000Y41113930D01*
X1523884Y41103259D01*
X1529528Y41100000D01*
X1906070Y41100000D01*
X1916741Y41103884D01*
X1920000Y41109528D01*
X1920000Y41113930D01*
X2080000Y41113930D01*
X2083884Y41103259D01*
X2089528Y41100000D01*
X2466069Y41100000D01*
X2476740Y41103884D01*
X2476767Y41103930D01*
X13520000Y41103930D01*
X13523884Y41093259D01*
X13529528Y41090000D01*
X13906070Y41090000D01*
X13916741Y41093884D01*
X13920000Y41099528D01*
X13920000Y41103930D01*
X14080000Y41103930D01*
X14083884Y41093259D01*
X14089528Y41090000D01*
X14466069Y41090000D01*
X14476740Y41093884D01*
X14479999Y41099528D01*
X14479999Y41186484D01*
X14479722Y41191160D01*
X14477640Y41208661D01*
X14474533Y41219970D01*
X14435291Y41308317D01*
X14427166Y41320138D01*
X14359713Y41387473D01*
X14347882Y41395574D01*
X14259474Y41434659D01*
X14248140Y41437749D01*
X14231098Y41439736D01*
X14226544Y41440000D01*
X14093930Y41440000D01*
X14083259Y41436116D01*
X14080000Y41430472D01*
X14080000Y41103930D01*
X13920000Y41103930D01*
X13920000Y41426069D01*
X13916116Y41436740D01*
X13910472Y41439999D01*
X13773516Y41439999D01*
X13768840Y41439722D01*
X13751339Y41437640D01*
X13740030Y41434533D01*
X13651683Y41395291D01*
X13639862Y41387166D01*
X13572527Y41319713D01*
X13564426Y41307882D01*
X13525341Y41219474D01*
X13522251Y41208140D01*
X13520264Y41191098D01*
X13520000Y41186544D01*
X13520000Y41103930D01*
X2476767Y41103930D01*
X2479999Y41109528D01*
X2479999Y41196484D01*
X2479722Y41201160D01*
X2477640Y41218661D01*
X2474533Y41229970D01*
X2435291Y41318317D01*
X2427166Y41330138D01*
X2359713Y41397473D01*
X2347882Y41405574D01*
X2259474Y41444659D01*
X2248140Y41447749D01*
X2231098Y41449736D01*
X2226544Y41450000D01*
X2093930Y41450000D01*
X2083259Y41446116D01*
X2080000Y41440472D01*
X2080000Y41113930D01*
X1920000Y41113930D01*
X1920000Y41436069D01*
X1916116Y41446740D01*
X1910472Y41449999D01*
X1773516Y41449999D01*
X1768840Y41449722D01*
X1751339Y41447640D01*
X1740030Y41444533D01*
X1651683Y41405291D01*
X1639862Y41397166D01*
X1572527Y41329713D01*
X1564426Y41317882D01*
X1525341Y41229474D01*
X1522251Y41218140D01*
X1520264Y41201098D01*
X1520000Y41196544D01*
X1520000Y41113930D01*
X160000Y41113930D01*
X160000Y42062326D01*
X3020000Y42062326D01*
X3020286Y42057584D01*
X3033772Y41946136D01*
X3036026Y41936960D01*
X3089126Y41796435D01*
X3093508Y41788053D01*
X3178591Y41664257D01*
X3184851Y41657157D01*
X3297009Y41557228D01*
X3304768Y41551835D01*
X3437537Y41481537D01*
X3446354Y41478153D01*
X3590351Y41441984D01*
X3596761Y41444280D01*
X3600000Y41449824D01*
X3600000Y41454349D01*
X3760000Y41454349D01*
X3763884Y41443678D01*
X3766325Y41442268D01*
X3767904Y41442317D01*
X3907119Y41475740D01*
X3915976Y41479034D01*
X4049465Y41547932D01*
X4057288Y41553249D01*
X4170489Y41652000D01*
X4176818Y41659030D01*
X4263195Y41781931D01*
X4267661Y41790260D01*
X4322229Y41930220D01*
X4324582Y41939385D01*
X4339662Y42053926D01*
X4340000Y42059085D01*
X4340000Y42062326D01*
X11660000Y42062326D01*
X11660286Y42057584D01*
X11673772Y41946136D01*
X11676026Y41936960D01*
X11729126Y41796435D01*
X11733508Y41788053D01*
X11818591Y41664257D01*
X11824851Y41657157D01*
X11937009Y41557228D01*
X11944768Y41551835D01*
X12077537Y41481537D01*
X12086354Y41478153D01*
X12230351Y41441984D01*
X12236761Y41444280D01*
X12240000Y41449824D01*
X12240000Y41454349D01*
X12400000Y41454349D01*
X12403884Y41443678D01*
X12406325Y41442268D01*
X12407904Y41442317D01*
X12547119Y41475740D01*
X12555976Y41479034D01*
X12689465Y41547932D01*
X12697288Y41553249D01*
X12810489Y41652000D01*
X12816818Y41659030D01*
X12903195Y41781931D01*
X12907661Y41790260D01*
X12962229Y41930220D01*
X12964582Y41939385D01*
X12979662Y42053926D01*
X12980000Y42059085D01*
X12980000Y42306070D01*
X12976116Y42316741D01*
X12970472Y42320000D01*
X12413930Y42320000D01*
X12403259Y42316116D01*
X12400000Y42310472D01*
X12400000Y41454349D01*
X12240000Y41454349D01*
X12240000Y42306070D01*
X12236116Y42316741D01*
X12230472Y42320000D01*
X11673930Y42320000D01*
X11663259Y42316116D01*
X11660000Y42310472D01*
X11660000Y42062326D01*
X4340000Y42062326D01*
X4340000Y42306070D01*
X4336116Y42316741D01*
X4330472Y42320000D01*
X3773930Y42320000D01*
X3763259Y42316116D01*
X3760000Y42310472D01*
X3760000Y41454349D01*
X3600000Y41454349D01*
X3600000Y42306070D01*
X3596116Y42316741D01*
X3590472Y42320000D01*
X3033930Y42320000D01*
X3023259Y42316116D01*
X3020000Y42310472D01*
X3020000Y42062326D01*
X160000Y42062326D01*
X160000Y42493930D01*
X3020000Y42493930D01*
X3023884Y42483259D01*
X3029528Y42480000D01*
X3586070Y42480000D01*
X3596741Y42483884D01*
X3600000Y42489528D01*
X3600000Y42493930D01*
X3760000Y42493930D01*
X3763884Y42483259D01*
X3769528Y42480000D01*
X4326070Y42480000D01*
X4336741Y42483884D01*
X4340000Y42489528D01*
X4340000Y42493930D01*
X11660000Y42493930D01*
X11663884Y42483259D01*
X11669528Y42480000D01*
X12226070Y42480000D01*
X12236741Y42483884D01*
X12240000Y42489528D01*
X12240000Y42493930D01*
X12400000Y42493930D01*
X12403884Y42483259D01*
X12409528Y42480000D01*
X12966070Y42480000D01*
X12976741Y42483884D01*
X12980000Y42489528D01*
X12980000Y42737674D01*
X12979714Y42742416D01*
X12966228Y42853864D01*
X12963974Y42863040D01*
X12910874Y43003565D01*
X12906492Y43011947D01*
X12821409Y43135743D01*
X12815149Y43142843D01*
X12702991Y43242772D01*
X12695232Y43248165D01*
X12562463Y43318463D01*
X12553646Y43321847D01*
X12409649Y43358016D01*
X12403239Y43355720D01*
X12400000Y43350176D01*
X12400000Y42493930D01*
X12240000Y42493930D01*
X12240000Y43345651D01*
X12236116Y43356322D01*
X12233675Y43357732D01*
X12232096Y43357683D01*
X12092881Y43324260D01*
X12084024Y43320966D01*
X11950535Y43252068D01*
X11942712Y43246751D01*
X11829511Y43148000D01*
X11823182Y43140970D01*
X11736805Y43018069D01*
X11732339Y43009740D01*
X11677771Y42869780D01*
X11675418Y42860615D01*
X11660338Y42746074D01*
X11660000Y42740915D01*
X11660000Y42493930D01*
X4340000Y42493930D01*
X4340000Y42737674D01*
X4339714Y42742416D01*
X4326228Y42853864D01*
X4323974Y42863040D01*
X4270874Y43003565D01*
X4266492Y43011947D01*
X4181409Y43135743D01*
X4175149Y43142843D01*
X4062991Y43242772D01*
X4055232Y43248165D01*
X3922463Y43318463D01*
X3913646Y43321847D01*
X3769649Y43358016D01*
X3763239Y43355720D01*
X3760000Y43350176D01*
X3760000Y42493930D01*
X3600000Y42493930D01*
X3600000Y43345651D01*
X3596116Y43356322D01*
X3593675Y43357732D01*
X3592096Y43357683D01*
X3452881Y43324260D01*
X3444024Y43320966D01*
X3310535Y43252068D01*
X3302712Y43246751D01*
X3189511Y43148000D01*
X3183182Y43140970D01*
X3096805Y43018069D01*
X3092339Y43009740D01*
X3037771Y42869780D01*
X3035418Y42860615D01*
X3020338Y42746074D01*
X3020000Y42740915D01*
X3020000Y42493930D01*
X160000Y42493930D01*
X160000Y42972641D01*
X162040Y42990479D01*
X163106Y42995080D01*
X164114Y42999427D01*
X164115Y43000000D01*
X163121Y43004355D01*
X162625Y43008799D01*
X162999Y43008841D01*
X161672Y43025514D01*
X165545Y43084603D01*
X175403Y43235010D01*
X176751Y43245248D01*
X177332Y43248165D01*
X221687Y43471156D01*
X224361Y43481133D01*
X236831Y43517867D01*
X298399Y43699240D01*
X302346Y43708770D01*
X404224Y43915358D01*
X409391Y43924307D01*
X537355Y44115818D01*
X543646Y44124016D01*
X695510Y44297183D01*
X702817Y44304490D01*
X875984Y44456354D01*
X884182Y44462645D01*
X1075693Y44590609D01*
X1084642Y44595776D01*
X1133232Y44619738D01*
X1291230Y44697654D01*
X1300760Y44701601D01*
X1518872Y44775640D01*
X1528844Y44778313D01*
X1754759Y44823250D01*
X1764990Y44824597D01*
X1974284Y44838315D01*
X1982148Y44837682D01*
X1982148Y44837895D01*
X1991041Y44837879D01*
X1999714Y44835885D01*
X2009291Y44838052D01*
X2026726Y44840000D01*
X13972852Y44840000D01*
X13990557Y44837990D01*
G37*
%TD.AperFunction*%
M02*
